<svg width="17" height="21" viewBox="0 0 17 21" fill="none" xmlns="http://www.w3.org/2000/svg">
<path d="M8.5 10.5C7.35417 10.5 6.41667 9.56248 6.41667 8.41665C6.41667 7.27081 7.35417 6.33331 8.5 6.33331C9.64583 6.33331 10.5833 7.27081 10.5833 8.41665C10.5833 9.56248 9.64583 10.5 8.5 10.5ZM14.75 8.62498C14.75 4.84373 11.9896 2.16665 8.5 2.16665C5.01042 2.16665 2.25 4.84373 2.25 8.62498C2.25 11.0625 4.28125 14.2916 8.5 18.1458C12.7188 14.2916 14.75 11.0625 14.75 8.62498ZM8.5 0.083313C12.875 0.083313 16.8333 3.43748 16.8333 8.62498C16.8333 12.0833 14.0521 16.1771 8.5 20.9166C2.94792 16.1771 0.166666 12.0833 0.166666 8.62498C0.166666 3.43748 4.125 0.083313 8.5 0.083313Z" fill="#181818"/>
</svg>
