<svg width="342" height="460" viewBox="0 0 342 460" fill="none" xmlns="http://www.w3.org/2000/svg">
<mask id="path-1-inside-1_35_11" fill="white">
<path fill-rule="evenodd" clip-rule="evenodd" d="M171.477 148.06H166.089V166.991H159.932V184.409H152.236V216.972H129.916V454H206.881V216.972H185.331V184.409H176.864V166.991H171.477V148.06ZM159.932 198.176C159.932 193.5 163.723 189.71 168.398 189.71C173.074 189.71 176.864 193.5 176.864 198.176V217.729H159.932V198.176ZM168.783 173.05C170.696 173.05 172.247 174.6 172.247 176.513V184.409H165.32V176.513C165.32 174.6 166.87 173.05 168.783 173.05Z"/>
</mask>
<path fill-rule="evenodd" clip-rule="evenodd" d="M171.477 148.06H166.089V166.991H159.932V184.409H152.236V216.972H129.916V454H206.881V216.972H185.331V184.409H176.864V166.991H171.477V148.06ZM159.932 198.176C159.932 193.5 163.723 189.71 168.398 189.71C173.074 189.71 176.864 193.5 176.864 198.176V217.729H159.932V198.176ZM168.783 173.05C170.696 173.05 172.247 174.6 172.247 176.513V184.409H165.32V176.513C165.32 174.6 166.87 173.05 168.783 173.05Z" fill="#F28705"/>
<path d="M166.089 148.06V147.06H165.089V148.06H166.089ZM171.477 148.06H172.477V147.06H171.477V148.06ZM166.089 166.991V167.991H167.089V166.991H166.089ZM159.932 166.991V165.991H158.932V166.991H159.932ZM159.932 184.409V185.409H160.932V184.409H159.932ZM152.236 184.409V183.409H151.236V184.409H152.236ZM152.236 216.972V217.972H153.236V216.972H152.236ZM129.916 216.972V215.972H128.916V216.972H129.916ZM129.916 454H128.916V455H129.916V454ZM206.881 454V455H207.881V454H206.881ZM206.881 216.972H207.881V215.972H206.881V216.972ZM185.331 216.972H184.331V217.972H185.331V216.972ZM185.331 184.409H186.331V183.409H185.331V184.409ZM176.864 184.409H175.864V185.409H176.864V184.409ZM176.864 166.991H177.864V165.991H176.864V166.991ZM171.477 166.991H170.477V167.991H171.477V166.991ZM176.864 217.729V218.729H177.864V217.729H176.864ZM159.932 217.729H158.932V218.729H159.932V217.729ZM172.247 184.409V185.409H173.247V184.409H172.247ZM165.32 184.409H164.32V185.409H165.32V184.409ZM166.089 149.06H171.477V147.06H166.089V149.06ZM167.089 166.991V148.06H165.089V166.991H167.089ZM159.932 167.991H166.089V165.991H159.932V167.991ZM160.932 184.409V166.991H158.932V184.409H160.932ZM152.236 185.409H159.932V183.409H152.236V185.409ZM153.236 216.972V184.409H151.236V216.972H153.236ZM129.916 217.972H152.236V215.972H129.916V217.972ZM130.916 454V216.972H128.916V454H130.916ZM206.881 453H129.916V455H206.881V453ZM205.881 216.972V454H207.881V216.972H205.881ZM185.331 217.972H206.881V215.972H185.331V217.972ZM184.331 184.409V216.972H186.331V184.409H184.331ZM176.864 185.409H185.331V183.409H176.864V185.409ZM175.864 166.991V184.409H177.864V166.991H175.864ZM171.477 167.991H176.864V165.991H171.477V167.991ZM170.477 148.06V166.991H172.477V148.06H170.477ZM168.398 188.71C163.17 188.71 158.932 192.948 158.932 198.176H160.932C160.932 194.052 164.275 190.71 168.398 190.71V188.71ZM177.864 198.176C177.864 192.948 173.626 188.71 168.398 188.71V190.71C172.522 190.71 175.864 194.052 175.864 198.176H177.864ZM177.864 217.729V198.176H175.864V217.729H177.864ZM159.932 218.729H176.864V216.729H159.932V218.729ZM158.932 198.176V217.729H160.932V198.176H158.932ZM173.247 176.513C173.247 174.048 171.248 172.05 168.783 172.05V174.05C170.144 174.05 171.247 175.153 171.247 176.513H173.247ZM173.247 184.409V176.513H171.247V184.409H173.247ZM165.32 185.409H172.247V183.409H165.32V185.409ZM164.32 176.513V184.409H166.32V176.513H164.32ZM168.783 172.05C166.318 172.05 164.32 174.048 164.32 176.513H166.32C166.32 175.153 167.423 174.05 168.783 174.05V172.05Z" fill="#401737" mask="url(#path-1-inside-1_35_11)"/>
<path d="M159.932 243.496C159.932 238.82 163.723 235.03 168.398 235.03C173.074 235.03 176.864 238.82 176.864 243.496V285.826H159.932V243.496Z" fill="#033858"/>
<path d="M183.022 243.111C183.022 238.648 186.64 235.03 191.103 235.03C195.566 235.03 199.184 238.648 199.184 243.111V285.826H183.022V243.111Z" fill="#033858"/>
<path d="M156.084 237.03L168.398 224.715L180.713 237.03" stroke="#F2CD5B"/>
<path d="M137.613 243.496C137.613 238.82 141.403 235.03 146.079 235.03C150.754 235.03 154.545 238.82 154.545 243.496V285.826H137.613V243.496Z" fill="#033858"/>
<path d="M285.993 436.265V457.527H290.901V436.843L313 447.66L300.628 409.461L306.35 412.262L296.872 383L302.24 385.627L287.857 341.219L273.474 385.627L278.841 383L269.363 412.262L275.085 409.461L262.713 447.66L285.993 436.265ZM81.5183 437.652V458.219H86.2658V438.211L107.642 448.674L95.6751 411.724L101.21 414.434L92.042 386.128L97.2339 388.669L83.3211 345.713L69.4084 388.669L74.6003 386.128L65.4323 414.434L70.9672 411.724L59 448.674L81.5183 437.652Z" fill="#FCE1CA"/>
<path d="M281 458.219C280.779 455.461 279.857 452.801 278.317 450.479C276.778 448.158 274.67 446.249 272.185 444.925C269.7 443.6 266.916 442.903 264.086 442.896C261.255 442.89 258.468 443.573 255.976 444.885C255.724 441.989 254.373 439.289 252.189 437.316C250.005 435.342 247.145 434.238 244.17 434.219C241.196 434.2 238.322 435.269 236.112 437.214C233.902 439.16 232.515 441.843 232.225 444.736C230.876 443.841 229.323 443.284 227.702 443.114C226.081 442.945 224.442 443.167 222.93 443.763C221.418 444.359 220.079 445.309 219.032 446.53C217.985 447.751 217.261 449.205 216.924 450.763H213.585C212.467 449.316 210.844 448.321 209.024 447.969C207.203 447.616 205.314 447.931 203.716 448.852C202.118 449.774 200.923 451.238 200.358 452.965C199.794 454.692 199.899 456.563 200.655 458.219H281Z" fill="#FFAF50"/>
<path d="M281 459.219H200.855L200.696 458.852C199.903 457.029 199.783 454.973 200.359 453.067C200.934 451.16 202.166 449.533 203.825 448.486C205.484 447.44 207.457 447.046 209.378 447.378C211.299 447.71 213.037 448.745 214.269 450.291H216.787C217.186 448.723 217.93 447.269 218.962 446.041C219.994 444.812 221.285 443.842 222.739 443.202C224.193 442.563 225.77 442.273 227.35 442.353C228.93 442.434 230.471 442.883 231.856 443.666C232.351 440.733 233.844 438.075 236.07 436.163C238.296 434.25 241.111 433.207 244.016 433.219C246.952 433.236 249.787 434.317 252.018 436.272C254.25 438.226 255.733 440.926 256.206 443.894C258.747 442.657 261.543 442.071 264.353 442.187C267.164 442.303 269.905 443.118 272.34 444.56C274.775 446.003 276.831 448.031 278.331 450.468C279.83 452.906 280.729 455.681 280.949 458.553L281 459.219ZM201.65 457.985H279.684C279.373 455.308 278.427 452.751 276.93 450.534C275.433 448.318 273.43 446.51 271.094 445.267C268.759 444.025 266.163 443.387 263.532 443.407C260.901 443.428 258.315 444.107 255.998 445.385L255.189 445.833L255.112 444.894C254.876 442.059 253.614 439.416 251.574 437.484C249.534 435.553 246.863 434.472 244.085 434.453C241.307 434.435 238.623 435.481 236.558 437.385C234.494 439.29 233.199 441.916 232.928 444.748L232.829 445.783L231.989 445.198C230.743 444.331 229.308 443.792 227.811 443.628C226.313 443.463 224.799 443.679 223.402 444.256C222.005 444.833 220.768 445.753 219.801 446.935C218.833 448.117 218.164 449.525 217.853 451.035L217.753 451.525H213.677L213.497 451.281C212.505 449.935 211.074 449.001 209.464 448.651C207.855 448.3 206.176 448.555 204.735 449.37C203.295 450.185 202.19 451.505 201.623 453.088C201.056 454.67 201.066 456.409 201.65 457.985Z" fill="#401737"/>
<path d="M52 409.219H48V408.023C48 407.786 48.0471 407.552 48.1386 407.333C48.2301 407.114 48.3644 406.915 48.5336 406.747C48.7028 406.58 48.9036 406.447 49.1247 406.356C49.3458 406.265 49.5827 406.219 49.822 406.219H50.178C50.4173 406.219 50.6542 406.265 50.8753 406.356C51.0964 406.447 51.2972 406.58 51.4664 406.747C51.6356 406.915 51.7699 407.114 51.8614 407.333C51.9529 407.552 52 407.786 52 408.023V409.219Z" fill="#F9953F"/>
<path d="M47.9998 409.219H51.9998L54 413.719L51.9998 418.219H47.9998L46 413.719L47.9998 409.219Z" fill="white"/>
<path d="M42.1028 453.497C41.8436 453.145 41.4645 452.894 41.0329 452.788C39.9482 452.535 39.2928 453.44 39.0078 454.321C38.9577 454.496 38.9323 454.676 38.9323 454.858C38.8974 454.975 38.877 455.097 38.8718 455.219H37L38.1141 448.669H44.0609L45.3216 455.219H43.0171C43.0335 454.46 42.8271 453.711 42.1028 453.497ZM49.3955 409.219H51.7449L54 413.01L51.7449 416.803H49.3955L51.6506 413.01L49.3955 409.219Z" fill="#F9953F"/>
<path d="M52.4474 417.825H47.3423L44.7898 413.522L47.3423 409.219H52.4474L55 413.522L52.4474 417.825ZM48.056 416.622H51.7341L53.5729 413.522L51.7341 410.422H48.056L46.2168 413.522L48.056 416.622ZM45.1055 455.219L43.9722 449.317H39.2192L38.2194 455.206L37 455.01L38.1703 448.114H44.9985L46.3203 454.998L45.1055 455.219ZM43.9772 446.758H42.7411V445.44C42.7409 445.28 42.6752 445.126 42.5587 445.013C42.4421 444.899 42.2841 444.835 42.1192 444.835H40.9828C40.8179 444.835 40.6598 444.899 40.5432 445.013C40.4265 445.126 40.3608 445.28 40.3606 445.44V446.758H39.1245V445.44C39.1252 444.961 39.3212 444.501 39.6696 444.162C40.018 443.823 40.4902 443.633 40.9828 443.632H42.1192C42.6118 443.633 43.0839 443.824 43.4322 444.162C43.7805 444.501 43.9765 444.961 43.9772 445.44V446.758Z" fill="#401737"/>
<path d="M48.8015 458.219H47.6129V455.407H42.7193V454.543C42.7193 454.198 42.5819 453.867 42.3373 453.623C42.0928 453.379 41.7611 453.242 41.4152 453.242C41.0693 453.242 40.7377 453.379 40.4931 453.623C40.2485 453.867 40.1111 454.198 40.1111 454.543V455.407H35.1886V458.219H34V454.221H38.9436C39.0221 453.623 39.3161 453.073 39.7709 452.675C40.2257 452.277 40.8101 452.057 41.4152 452.057C42.0203 452.057 42.6048 452.277 43.0595 452.675C43.5143 453.073 43.8083 453.623 43.8868 454.221H48.8012L48.8015 458.219ZM41.9949 444.095H40.8063V402.768C40.8073 401.827 41.1825 400.925 41.8495 400.26C42.5165 399.594 43.4209 399.22 44.3643 399.219H46.442C47.3853 399.22 48.2897 399.594 48.9567 400.259C49.6237 400.925 49.9989 401.827 50 402.768V404.857H48.8114V402.768C48.8107 402.141 48.5608 401.541 48.1166 401.098C47.6724 400.654 47.0702 400.405 46.442 400.404H44.3643C43.7361 400.405 43.1339 400.654 42.6897 401.098C42.2455 401.541 41.9956 402.141 41.9949 402.768V444.095Z" fill="#401737"/>
<path d="M46 409.219H54V410.219H46V409.219Z" fill="#401737"/>
<path d="M53 410.219H47V408.351C47.0009 407.786 47.2877 407.244 47.7974 406.844C48.307 406.444 48.998 406.219 49.7187 406.219H50.2817C51.0023 406.219 51.6933 406.444 52.2029 406.844C52.7125 407.244 52.9992 407.786 53 408.351V410.219ZM48.3819 409.135H51.6181V408.351C51.6176 408.073 51.4766 407.807 51.2261 407.61C50.9756 407.414 50.6359 407.303 50.2817 407.303H49.7187C49.3644 407.303 49.0248 407.414 48.7743 407.61C48.5238 407.807 48.3828 408.073 48.3822 408.351L48.3819 409.135Z" fill="#401737"/>
<path d="M268 355.38L257.313 350.912L263.091 350.423L260.277 346.553L244.224 342.228H249.346L240.156 328.219L238.533 337.837L228.359 346.553L232.051 347.879L221.028 351.851L217.531 357.491L227.582 357.388L215 364.594V371.206L229.071 366.956L228.359 367.566L232.051 368.892L221.028 372.864L217.531 378.504L227.582 378.401L215 385.607V392.219L232.488 386.937L240.155 377.767L268 383.45V376.394L257.313 371.925L263.091 371.436L260.277 367.566L246.872 363.232L245.853 357.917L268 362.437V355.38Z" fill="#FFAF50"/>
<path d="M240 377.219H243V458.219H240V377.219Z" fill="#401737"/>
<path d="M214 393.632V385.529L225.073 378.997L216.083 379.091L220.316 372.062L230.134 368.417L228.143 367.681L214 371.65V363.571L225.073 357.039L216.084 357.133L220.316 350.103L230.134 346.459L226.984 345.294L237.917 335.645L239.789 324.219L250.437 340.939L249.162 341.27L260.924 344.534L264.529 349.64L260.043 350.031L269 353.889V362.433L246.692 357.743L247.489 362.029L260.935 366.506L264.483 371.531L260.453 372.166L269 375.847V384.392L240.377 378.374L232.719 387.809L214 393.632ZM215.234 386.237V391.952L231.998 386.737L239.895 377.007L267.767 382.867V376.663L256.03 371.609L262.325 370.618L260.163 367.554L246.41 362.975L245.141 356.152L267.767 360.909V354.705L255.04 349.224L262.278 348.593L260.173 345.611L244.388 341.23L248.481 340.167L240.483 327.609L239.063 336.284L229.355 344.851L233.696 346.457L221.148 351.115L218.284 355.871L229.689 355.752L215.234 364.279V370.018L228.195 366.38L233.696 368.415L221.148 373.073L218.284 377.829L229.689 377.71L215.234 386.237ZM241.254 402.083L247.068 399.534L247.561 400.669L241.747 403.219L241.254 402.083ZM237.784 394.647L238.152 393.465L241.699 394.578L241.33 395.76L237.784 394.647Z" fill="#401737"/>
<path d="M5 432.607C5 435.421 6.15893 438.12 8.22183 440.111C10.2847 442.101 13.0826 443.219 16 443.219C18.9174 443.219 21.7153 442.101 23.7782 440.111C25.8411 438.12 27 435.421 27 432.607C27 426.745 19.1024 403.219 16 403.219C12.8976 403.219 5 426.745 5 432.607Z" fill="#FFAF50"/>
<path d="M15 430.219H17V458.219H15V430.219Z" fill="#401737"/>
<path d="M15 442.621L19.5475 435.219L21 435.816L16.4525 443.219L15 442.621Z" fill="#401737"/>
<path d="M16.5 444.219C13.4511 444.215 10.5281 443.01 8.37216 440.868C6.21626 438.725 5.00352 435.82 5 432.79C5 429.393 7.2421 421.379 9.32562 415.369C10.3523 412.309 11.5641 409.314 12.9543 406.399C14.7966 402.694 15.817 402.219 16.5003 402.219C17.1837 402.219 18.2037 402.694 20.0461 406.399C21.4361 409.314 22.6478 412.309 23.6744 415.369C25.7579 421.379 28 429.393 28 432.79C27.9965 435.82 26.7837 438.725 24.6278 440.868C22.4719 443.01 19.5489 444.215 16.5 444.219ZM16.4993 403.436C15.8107 403.475 13.5599 406.876 10.4588 415.839C8.00557 422.929 6.22519 430.058 6.22519 432.79C6.22519 435.498 7.30771 438.095 9.23461 440.01C11.1615 441.925 13.775 443.001 16.5 443.001C19.225 443.001 21.8385 441.925 23.7654 440.01C25.6923 438.095 26.7748 435.498 26.7748 432.79C26.7748 430.058 24.9944 422.929 22.5416 415.839C19.4401 406.876 17.1893 403.475 16.4993 403.436Z" fill="#401737"/>
<path d="M88.6303 437.52H64.4386L67.6926 434.219H88.6303V437.52ZM88.6303 443.612H64.4386L67.6926 440.311H88.6303V443.612ZM97 451.219H65.6823L63 448.119H93.2368L95.9848 449.381L97 451.219Z" fill="#FFAF50"/>
<path d="M55 442.827H56.2037V458.219H55V442.827ZM55 437.216H56.2037V439.736H55V437.216ZM55 432.219H56.2037V434.156H55V432.219ZM86.7963 442.827H88V447.047H86.7963V442.827ZM86.7963 437.123H88V439.736H86.7963V437.123ZM86.7963 432.219H88V433.785H86.7963V432.219Z" fill="#401737"/>
<path d="M67.3244 459.219H55V446.229H60.775C62.5114 446.231 64.1762 446.959 65.404 448.253C66.6318 449.547 67.3224 451.302 67.3244 453.132V459.219ZM56.1991 457.955H66.1252V453.132C66.1236 451.637 65.5594 450.204 64.5564 449.147C63.5534 448.089 62.1935 447.495 60.775 447.493H56.1991V457.955ZM99 459.208H86.675V449.943H87.8741V457.944H97.8005V453.121C97.7989 451.626 97.2347 450.193 96.2317 449.136C95.2287 448.079 93.8688 447.484 92.4503 447.483H87.2745V446.219H92.4503C94.1867 446.221 95.8514 446.949 97.0792 448.243C98.307 449.537 98.9977 451.291 98.9997 453.121L99 459.208Z" fill="#401737"/>
<path d="M60.27 446.921H91.8187V448.17H60.27V446.921ZM65.3722 449.971H97V451.219H65.3722V449.971ZM88.6943 437.72H53V433.219H88.6943V437.72ZM54.1943 436.472H87.5V434.467H54.1943V436.472ZM88.6943 443.723H53V439.222H88.6943V443.723ZM54.1943 442.475H87.5V440.47H54.1943V442.475Z" fill="#401737"/>
<path d="M72.2071 379.439C70.6499 378.805 68.7664 379.588 68 381.187L73.6379 383.482C74.4047 381.883 73.7639 380.072 72.2071 379.439ZM262.23 422.043C261.91 422.426 261.746 422.916 261.77 423.415C261.795 423.914 262.006 424.385 262.362 424.736L264.773 422.058C264.613 421.881 264.417 421.739 264.199 421.642C263.98 421.545 263.744 421.494 263.505 421.493C263.266 421.491 263.029 421.539 262.81 421.634C262.59 421.729 262.393 421.868 262.23 422.043ZM318.69 442.739C318.383 442.346 317.939 442.082 317.446 442C316.953 441.918 316.447 442.024 316.028 442.297L318.136 445.219C318.343 445.099 318.523 444.938 318.665 444.746C318.807 444.553 318.906 444.334 318.959 444.1C319.011 443.867 319.014 443.626 318.968 443.392C318.921 443.157 318.827 442.935 318.69 442.739Z" fill="#F9953F"/>
<path d="M63.286 367.344C62.9875 367.927 62.9198 368.6 63.0963 369.231C63.2728 369.861 63.6806 370.402 64.2389 370.747L66.5514 366.627C66.2938 366.448 66.0017 366.323 65.6934 366.262C65.3851 366.201 65.0675 366.204 64.7605 366.272C64.4536 366.339 64.1641 366.469 63.9103 366.654C63.6565 366.839 63.4439 367.074 63.286 367.344ZM256.458 433.418C256.913 433.89 257.531 434.174 258.187 434.214C258.843 434.254 259.49 434.047 260 433.634L256.844 430.111C256.59 430.295 256.377 430.529 256.218 430.799C256.059 431.069 255.958 431.369 255.922 431.68C255.885 431.991 255.914 432.306 256.007 432.605C256.099 432.904 256.252 433.181 256.458 433.418V433.418Z" fill="#FFAF50"/>
<path d="M289.982 412.541C289.995 412.521 287.643 411.04 287.643 411.04C287.65 411.025 289.345 408.553 289.345 408.553C289.345 408.553 289.386 405.262 287.476 403.844C285.565 402.425 281.495 403.377 281 407.167L281.611 407.009C281.547 407.286 281.508 407.568 281.496 407.852C281.4 410.192 283.023 412.986 284.822 413.059C285.377 413.058 285.915 412.867 286.344 412.518L286.943 415.213L286.978 415.37C286.982 415.386 286.99 415.401 287 415.414C287.011 415.427 287.024 415.438 287.039 415.445L290.004 422.594C287.427 423.91 284.056 426.669 284.006 426.675L282.44 426.859C282.308 426.872 282.18 426.911 282.063 426.974C281.947 427.036 281.844 427.122 281.762 427.226C281.68 427.329 281.62 427.448 281.585 427.575C281.55 427.702 281.542 427.835 281.561 427.965C281.59 428.121 281.656 428.267 281.753 428.392C281.851 428.517 281.976 428.618 282.12 428.686C282.264 428.753 282.423 428.786 282.582 428.781C282.741 428.777 282.897 428.735 283.036 428.659L284.405 427.914C284.449 427.89 287.208 427.232 290 426.337L290.769 429.119C287.364 430.655 283.582 432.55 282.837 433.689C281.426 435.845 284.682 446.318 284.682 446.318C284.682 446.318 282.596 446.969 281.885 448.435L286.85 448.145L287.51 452.507C287.51 452.507 285.091 453.735 284.662 455.219L290.072 453.837C290.021 453.222 289.728 452.653 289.256 452.252C289.983 449.584 291.697 442.093 288.751 439.76C288.751 439.76 299.952 436.008 300.518 430.927H302C299.704 418.677 289.982 412.541 289.982 412.541Z" fill="white"/>
<path d="M289.997 411.219L287 414.79L289.139 422.15L291.901 420.855C291.286 420.148 290.71 419.408 290.174 418.639C288.649 416.594 292.871 414.135 294.286 417.572C295.701 421.01 295.564 423.017 295.564 423.017C293.703 424.035 291.764 424.899 289.764 425.601L291.01 430.219H302C301.529 421.447 289.997 411.219 289.997 411.219Z" fill="#FFAF50"/>
<path d="M280 450.219L280.477 449.088C281.314 447.103 283.623 446.254 283.72 446.219L284.092 447.569C283.521 447.796 282.983 448.117 282.495 448.523L284.882 448.262L285 449.671L280 450.219Z" fill="#401737"/>
<path d="M283.9 447.085L283.752 446.61C283.18 444.769 280.404 435.469 281.932 433.133C282.19 432.738 282.975 431.539 290.331 428.219L290.843 429.338C284.5 432.201 283.224 433.414 282.97 433.803C282.066 435.184 283.555 441.676 284.789 445.772L286.118 445.655L286.228 446.88L283.9 447.085ZM287.335 453.164C286.547 453.163 285.787 452.877 285.196 452.359C284.605 451.841 284.225 451.126 284.127 450.35C284.029 449.573 284.219 448.787 284.663 448.14C285.106 447.493 285.772 447.029 286.536 446.835L286.841 448.027C286.37 448.147 285.959 448.433 285.685 448.833C285.412 449.233 285.294 449.718 285.355 450.197C285.416 450.676 285.65 451.117 286.015 451.437C286.38 451.757 286.849 451.934 287.336 451.934L287.335 453.164ZM271.329 459.219C269.484 459.219 267.68 458.675 266.146 457.657C264.612 456.638 263.416 455.191 262.71 453.497C262.004 451.803 261.819 449.939 262.179 448.141C262.539 446.343 263.428 444.692 264.732 443.395C266.037 442.099 267.699 441.216 269.509 440.859C271.318 440.501 273.194 440.685 274.899 441.386C276.603 442.088 278.06 443.276 279.085 444.8C280.11 446.325 280.657 448.117 280.657 449.95C280.655 452.407 279.671 454.763 277.922 456.501C276.173 458.239 273.802 459.216 271.329 459.219ZM271.329 441.911C269.729 441.91 268.164 442.382 266.834 443.265C265.503 444.149 264.466 445.404 263.854 446.873C263.241 448.342 263.081 449.959 263.393 451.518C263.705 453.078 264.476 454.51 265.607 455.635C266.739 456.759 268.181 457.525 269.75 457.835C271.32 458.145 272.946 457.986 274.425 457.377C275.903 456.769 277.167 455.739 278.056 454.416C278.945 453.094 279.42 451.54 279.42 449.95C279.417 447.819 278.564 445.775 277.047 444.268C275.531 442.761 273.474 441.913 271.329 441.911ZM302.671 459.219C300.826 459.219 299.023 458.675 297.488 457.657C295.954 456.638 294.759 455.19 294.053 453.497C293.347 451.803 293.162 449.939 293.522 448.141C293.882 446.343 294.77 444.692 296.075 443.395C297.38 442.099 299.042 441.216 300.852 440.859C302.661 440.501 304.537 440.685 306.241 441.386C307.946 442.088 309.403 443.276 310.428 444.8C311.453 446.325 312 448.117 312 449.95C311.997 452.407 311.013 454.763 309.264 456.501C307.516 458.239 305.144 459.216 302.671 459.219ZM302.671 441.911C301.071 441.911 299.507 442.382 298.176 443.265C296.846 444.149 295.808 445.404 295.196 446.873C294.584 448.342 294.423 449.959 294.736 451.518C295.048 453.078 295.818 454.51 296.95 455.635C298.082 456.759 299.523 457.525 301.093 457.835C302.662 458.145 304.289 457.986 305.768 457.377C307.246 456.769 308.51 455.739 309.399 454.416C310.288 453.094 310.762 451.54 310.762 449.95C310.76 447.819 309.907 445.775 308.39 444.268C306.873 442.761 304.816 441.913 302.671 441.911Z" fill="#401737"/>
<path d="M283 456.219L283.338 455.204C283.904 453.505 286.682 452.237 286.996 452.098L287.08 452.061L289.393 451.647L289.646 451.812C290.028 452.071 290.345 452.396 290.575 452.766C290.806 453.136 290.946 453.543 290.986 453.961L291 454.442L283 456.219ZM287.553 453.211C286.859 453.535 286.211 453.931 285.625 454.388L289.469 453.534C289.359 453.317 289.205 453.119 289.015 452.949L287.553 453.211ZM286.832 415.884C286.642 415.884 286.457 415.827 286.308 415.724C286.159 415.621 286.056 415.477 286.015 415.317L285.279 412.44L286.646 412.179L287.156 414.173L289.119 412.419L286.934 411.244L287.674 410.219L290.539 411.76C290.634 411.811 290.715 411.88 290.775 411.961C290.835 412.042 290.874 412.134 290.888 412.23C290.901 412.326 290.89 412.423 290.855 412.515C290.82 412.607 290.761 412.69 290.684 412.76L287.434 415.663C287.356 415.733 287.262 415.788 287.159 415.826C287.056 415.864 286.945 415.884 286.832 415.884Z" fill="#401737"/>
<path d="M303 431.219H290.464L289 426.064L290.224 425.739L291.432 429.991H301.462C298.883 418.338 289.386 412.313 289.288 412.252L289.973 411.219C290.399 411.483 300.422 417.826 302.86 430.493L303 431.219Z" fill="#401737"/>
<path d="M286.353 416.005L287.68 415.675L290 423.888L288.674 424.219L286.353 416.005ZM284.552 413.905C284.515 413.905 284.478 413.904 284.442 413.903C283.253 413.857 282.066 413.058 281.185 411.71C280.384 410.483 279.974 409.067 280.001 407.629C280.023 407.151 280.109 406.677 280.256 406.219L281.57 406.589C281.456 406.944 281.39 407.311 281.372 407.682C281.353 408.864 281.693 410.028 282.354 411.035C282.983 411.996 283.784 412.587 284.498 412.615C285.332 412.647 286.351 411.911 287.099 410.74L288.276 411.404C287.27 412.978 285.885 413.905 284.552 413.905Z" fill="#401737"/>
<path d="M282.846 429.191C282.697 429.191 282.548 429.169 282.405 429.126C282.126 429.042 281.876 428.881 281.681 428.66C281.486 428.439 281.355 428.167 281.301 427.875C281.264 427.672 281.269 427.463 281.315 427.262C281.361 427.061 281.446 426.872 281.567 426.707C281.697 426.526 281.861 426.374 282.05 426.262C282.239 426.149 282.449 426.077 282.666 426.05L284.037 425.883C284.083 425.846 284.144 425.797 284.216 425.739C287.249 423.309 289.478 421.843 290.974 421.299C290.712 421.004 290.423 420.64 290.101 420.198L291.041 419.474C291.435 420.075 291.915 420.612 292.463 421.068C292.578 421.145 292.666 421.257 292.714 421.389C292.761 421.521 292.766 421.665 292.727 421.8C292.688 421.935 292.607 422.053 292.497 422.137C292.388 422.221 292.254 422.266 292.117 422.265C291.494 422.265 289.743 422.843 284.939 426.691C284.526 427.023 284.501 427.042 284.329 427.063L282.804 427.249C282.747 427.257 282.692 427.276 282.642 427.305C282.592 427.335 282.549 427.375 282.514 427.422C282.49 427.454 282.472 427.491 282.462 427.531C282.452 427.57 282.45 427.612 282.456 427.652C282.47 427.726 282.503 427.794 282.552 427.85C282.601 427.905 282.664 427.946 282.734 427.967C282.783 427.982 282.835 427.987 282.887 427.981C282.938 427.975 282.988 427.959 283.034 427.933L284.366 427.182C284.52 427.11 284.683 427.059 284.85 427.033C294.746 424.417 295.15 423.043 295.162 422.986C295.184 422.597 294.5 420.599 293.951 419.354L295.022 418.856C295.037 418.89 296.514 422.302 296.31 423.247C296.184 423.828 295.851 425.372 285.143 428.202L284.875 428.273L283.598 428.992C283.368 429.123 283.109 429.191 282.846 429.191ZM287.185 453.219L284.911 437.672L291.062 430.145H301L300.928 430.815C300.433 435.425 292.595 438.861 289.933 439.901C292.633 443.559 289.942 451.965 289.818 452.347L289.711 452.675L287.185 453.219ZM286.152 438.031L288.163 451.774L288.806 451.636C289.658 448.837 291.028 442.18 288.516 440.122L287.673 439.432L288.694 439.078C291.461 438.118 298.466 434.962 299.616 431.353H291.61L286.152 438.031ZM287.715 411.909L285.698 407.479L284.028 407.745L283.878 406.747L280.637 407.615L280.75 406.727C280.838 405.835 281.158 404.985 281.675 404.263C282.192 403.542 282.889 402.977 283.691 402.626C285.186 401.977 286.874 402.112 287.992 402.971C290.069 404.567 290.051 408.061 290.049 408.209L290.046 408.391L287.715 411.909ZM286.39 406.147L287.905 409.477L288.87 408.021C288.845 407.362 288.661 404.993 287.288 403.939C286.511 403.341 285.25 403.261 284.149 403.739C283.675 403.94 283.249 404.244 282.899 404.629C282.55 405.013 282.284 405.471 282.12 405.97L284.84 405.242L285.01 406.366L286.39 406.147ZM272 449.534L278.752 427.805L279.872 428.172L273.12 449.901L272 449.534Z" fill="#401737"/>
<path d="M303 451.219H290V449.931H301.25L296.349 436.702L297.442 436.219L303 451.219Z" fill="#401737"/>
<path d="M290.641 449.219L289.568 448.608L297.882 434.425L302.694 433.219L303 434.402L298.694 435.483L290.641 449.219ZM276 435.601H282.284V436.822H276V435.601Z" fill="#401737"/>
<path d="M278.544 437.339L279.695 436.756L288 450.636L286.849 451.219L278.544 437.339ZM284.139 431.585H282.825V431.071C282.826 430.855 282.78 430.641 282.69 430.441C282.6 430.242 282.468 430.061 282.302 429.909L283.231 429.054C283.52 429.318 283.749 429.632 283.905 429.979C284.061 430.325 284.14 430.696 284.139 431.071V431.585ZM276 428.219H281.414V429.427H276V428.219Z" fill="#401737"/>
<path d="M342 423.534C341.999 422.195 341.579 420.888 340.797 419.794C340.015 418.699 338.909 417.869 337.631 417.418C338.208 415.238 338.082 412.935 337.271 410.829C336.461 408.723 335.005 406.917 333.108 405.664C333.419 404.681 333.489 403.639 333.312 402.624C333.136 401.609 332.717 400.65 332.092 399.826C331.466 399.001 330.651 398.335 329.714 397.882C328.776 397.429 327.743 397.202 326.699 397.22C325.655 397.237 324.631 397.499 323.71 397.984C322.788 398.468 321.997 399.161 321.4 400.006C320.804 400.851 320.419 401.824 320.277 402.844C320.136 403.865 320.242 404.904 320.587 405.876C318.759 407.171 317.379 408.989 316.633 411.084C315.887 413.18 315.812 415.45 316.418 417.589C315.257 417.988 314.233 418.699 313.461 419.643C312.689 420.587 312.2 421.725 312.049 422.928C311.899 424.132 312.093 425.353 312.61 426.453C313.126 427.553 313.945 428.489 314.972 429.154C314.383 430.337 314.171 431.668 314.366 432.971C314.561 434.275 315.153 435.489 316.064 436.453C316.975 437.417 318.161 438.085 319.465 438.368C320.77 438.651 322.131 438.536 323.367 438.039C324.974 439.303 326.933 440.055 328.983 440.195C331.033 440.335 333.078 439.855 334.846 438.821C336.613 437.786 338.019 436.245 338.878 434.403C339.736 432.561 340.005 430.505 339.65 428.508C340.387 427.898 340.979 427.137 341.385 426.278C341.79 425.419 342 424.482 342 423.534Z" fill="#FFAF50"/>
<path d="M329.569 440.219C327.349 440.227 325.187 439.51 323.412 438.179C322.156 438.62 320.799 438.689 319.505 438.379C318.211 438.069 317.034 437.392 316.115 436.43C315.196 435.467 314.575 434.26 314.325 432.954C314.076 431.647 314.209 430.296 314.708 429.063C313.755 428.333 313.008 427.366 312.542 426.259C312.075 425.152 311.906 423.943 312.05 422.75C312.194 421.558 312.646 420.423 313.362 419.458C314.078 418.494 315.034 417.732 316.134 417.249C315.662 415.185 315.789 413.029 316.501 411.034C317.212 409.04 318.478 407.289 320.15 405.989C319.98 405.385 319.893 404.761 319.892 404.134C319.893 403.157 320.101 402.191 320.502 401.299C320.903 400.408 321.489 399.612 322.221 398.963C322.952 398.314 323.813 397.828 324.746 397.535C325.679 397.243 326.664 397.152 327.635 397.267C328.606 397.383 329.542 397.703 330.381 398.206C331.219 398.709 331.941 399.384 332.5 400.186C333.059 400.988 333.441 401.9 333.622 402.86C333.803 403.821 333.778 404.809 333.549 405.759C335.291 407.025 336.63 408.768 337.403 410.777C338.176 412.787 338.35 414.977 337.905 417.083C338.949 417.549 339.861 418.267 340.559 419.171C341.258 420.076 341.721 421.139 341.907 422.267C342.094 423.394 341.998 424.55 341.628 425.631C341.257 426.712 340.625 427.685 339.786 428.462C339.995 429.924 339.886 431.414 339.468 432.83C339.05 434.247 338.333 435.557 337.364 436.672C336.395 437.787 335.197 438.68 333.853 439.292C332.508 439.904 331.047 440.22 329.569 440.219ZM323.609 436.828L323.881 437.045C325.493 438.339 327.501 439.041 329.569 439.034C330.902 439.035 332.219 438.744 333.428 438.182C334.636 437.62 335.707 436.801 336.564 435.781C337.422 434.761 338.046 433.566 338.391 432.28C338.737 430.993 338.797 429.647 338.567 428.335L338.508 427.999L338.769 427.78C339.541 427.132 340.129 426.292 340.473 425.344C340.816 424.396 340.903 423.374 340.725 422.381C340.546 421.389 340.109 420.461 339.457 419.692C338.805 418.923 337.961 418.339 337.011 418L336.501 417.817L336.638 417.293C337.16 415.291 337.046 413.175 336.311 411.241C335.576 409.306 334.257 407.648 332.537 406.497L332.17 406.252L332.3 405.831C332.571 404.963 332.633 404.044 332.479 403.149C332.326 402.254 331.961 401.407 331.417 400.68C330.872 399.953 330.162 399.365 329.346 398.965C328.53 398.566 327.63 398.365 326.722 398.381C325.813 398.396 324.921 398.627 324.118 399.055C323.316 399.482 322.627 400.094 322.108 400.839C321.588 401.585 321.253 402.443 321.13 403.343C321.008 404.243 321.1 405.159 321.401 406.017L321.546 406.434L321.188 406.692C319.53 407.881 318.278 409.551 317.602 411.476C316.926 413.4 316.858 415.485 317.407 417.45L317.556 417.984L317.032 418.168C316.022 418.52 315.13 419.147 314.458 419.98C313.786 420.812 313.36 421.815 313.229 422.877C313.098 423.938 313.267 425.015 313.717 425.986C314.167 426.956 314.879 427.781 315.774 428.368L316.211 428.656L315.98 429.124C315.591 429.908 315.388 430.772 315.388 431.647C315.388 432.587 315.618 433.513 316.06 434.343C316.502 435.173 317.141 435.882 317.922 436.407C318.702 436.931 319.6 437.256 320.535 437.353C321.471 437.449 322.416 437.314 323.287 436.959L323.609 436.828Z" fill="#401737"/>
<path d="M326 421.219H328V459.219H326V421.219Z" fill="#401737"/>
<path d="M326 428.435L331.902 424.219L333 425.003L327.098 429.219L326 428.435Z" fill="#401737"/>
<path d="M134 458.219C133.354 455.393 131.659 452.856 129.201 451.034C126.742 449.213 123.669 448.219 120.5 448.219C117.331 448.219 114.258 449.213 111.799 451.034C109.341 452.856 107.646 455.393 107 458.219H134Z" fill="#FFAF50"/>
<path d="M135 459.219H105L105.158 458.445C105.868 454.99 107.731 451.888 110.434 449.661C113.138 447.434 116.515 446.219 120 446.219C123.484 446.219 126.862 447.434 129.565 449.661C132.268 451.888 134.132 454.99 134.842 458.445L135 459.219ZM106.583 457.932H133.416C132.625 454.941 130.881 452.298 128.455 450.413C126.029 448.528 123.057 447.506 120 447.506C116.942 447.506 113.97 448.528 111.545 450.413C109.119 452.298 107.375 454.941 106.583 457.932Z" fill="#401737"/>
<path d="M120.232 392.735C119.103 387.758 113.649 380.257 103.644 377.792C103.223 377.681 102.798 377.586 102.37 377.507L102.31 377.497C101.294 377.312 100.263 377.219 99.2296 377.219C90.4104 377.219 83.2027 383.782 83.1567 391.849L83.146 393.679L81.8968 395.11C79.8294 397.441 78.4783 400.297 78 403.347C78.655 407.368 80.7815 411.019 83.9835 413.619C85.9396 416.015 88.4267 417.944 91.2567 419.26C94.0867 420.576 97.1855 421.246 100.319 421.218C107.247 421.218 113.358 419.686 117.003 414.828C117.439 414.866 117.882 414.887 118.333 414.887C125.126 414.887 130.779 409.14 132 402.951C130.893 397.624 126.155 393.478 120.232 392.735Z" fill="#FFAF50"/>
<path d="M132 405.606C132 412.601 125.822 419.921 118.197 419.921C117.749 419.921 117.31 419.9 116.876 419.862C113.261 424.695 107.198 426.218 100.326 426.218C97.2183 426.246 94.1443 425.58 91.337 424.27C88.5297 422.961 86.0625 421.042 84.1221 418.66C82.2224 417.123 80.6895 415.196 79.6317 413.014C78.5739 410.833 78.0169 408.45 78 406.034C77.9999 405.224 78.0623 404.414 78.1866 403.613C78.8363 407.612 80.9458 411.244 84.1221 413.831C86.0625 416.213 88.5297 418.132 91.337 419.441C94.1443 420.751 97.2183 421.417 100.326 421.389C107.199 421.389 113.261 419.865 116.876 415.033C117.309 415.071 117.749 415.092 118.197 415.092C124.935 415.092 130.542 409.374 131.754 403.219C131.918 404.004 132 404.804 132 405.606Z" fill="#F9953F"/>
<path d="M100.978 410.278C103.044 411.669 103.479 414.188 103.479 414.188C103.479 414.188 100.589 414.504 98.5239 413.114C96.4585 411.723 96 409.153 96 409.153C96 409.153 98.9129 408.888 100.978 410.278ZM106.92 409.415C106.532 411.04 104.759 412.105 104.759 412.105C104.759 412.105 103.582 410.563 103.97 408.938C104.357 407.313 106.162 406.219 106.162 406.219C106.162 406.219 107.307 407.79 106.92 409.415Z" fill="white"/>
<path d="M99.8455 426.219C93.332 426.219 87.1386 423.315 83.2651 418.449C81.3231 416.846 79.7568 414.843 78.675 412.581C77.5932 410.319 77.0216 407.851 77 405.349C77.0007 401.286 78.4871 397.361 81.1848 394.297L82.2719 393.039L82.2807 391.434C82.3272 383.044 89.7241 376.219 98.7696 376.219C99.8239 376.22 100.876 376.315 101.913 376.502L101.979 376.516C102.425 376.6 102.864 376.698 103.291 376.812C113.39 379.328 118.74 386.977 120.014 391.778C126.877 392.84 132 398.42 132 404.919C132 411.989 125.858 419.897 117.637 419.897C117.305 419.897 116.962 419.885 116.614 419.862C113.28 424.139 107.79 426.219 99.8455 426.219ZM98.7696 377.437C90.3992 377.437 83.5547 383.719 83.5121 391.441L83.5008 393.491L82.1207 395.089C79.6148 397.932 78.2334 401.576 78.2314 405.349C78.2535 407.685 78.7909 409.988 79.806 412.097C80.8212 414.206 82.2897 416.07 84.1088 417.56L84.196 417.65C87.8356 422.252 93.6855 425.001 99.8455 425.001C107.537 425.001 112.766 422.995 115.829 418.868L116.034 418.592L116.38 418.622C116.809 418.66 117.232 418.679 117.637 418.679C125.153 418.679 130.769 411.414 130.769 404.919C130.769 398.899 125.897 393.744 119.436 392.927L119.007 392.873L118.913 392.455C117.912 387.987 112.843 380.448 102.981 377.991C102.574 377.883 102.167 377.791 101.76 377.715L101.703 377.703C100.735 377.527 99.7536 377.438 98.7696 377.437Z" fill="#401737"/>
<path d="M101 426.219H102V458.219H101V426.219Z" fill="#401737"/>
<path d="M71.4919 287.316C71.6438 287.163 71.793 287.008 71.9373 286.848C72.0224 287.007 72.113 287.163 72.2077 287.316H86.9271C87.934 285.687 88.3696 283.77 88.1651 281.867C87.9607 279.964 87.1278 278.183 85.7978 276.804C84.4678 275.426 82.7162 274.528 80.819 274.253C78.9218 273.978 76.9869 274.341 75.319 275.284C74.7906 272.121 73.1798 269.238 70.7612 267.128C68.3425 265.018 65.2656 263.81 62.055 263.711C58.8444 263.612 55.6987 264.627 53.1541 266.584C50.6094 268.542 48.8234 271.319 48.1003 274.444C47.1952 274.675 46.3339 275.052 45.5502 275.559C44.3219 273.787 42.5585 272.453 40.5172 271.751C38.4759 271.05 36.2635 271.018 34.2029 271.661C32.1424 272.304 30.3414 273.587 29.0628 275.324C27.7843 277.06 27.095 279.159 27.0957 281.315C27.0957 281.356 27.1015 281.396 27.102 281.437C26.1935 280.899 25.1459 280.64 24.0907 280.693C23.0355 280.747 22.0197 281.111 21.1707 281.739C20.3217 282.367 19.6774 283.231 19.3187 284.223C18.9599 285.215 18.9026 286.291 19.1541 287.316H71.4919Z" fill="white"/>
<path d="M283.082 294.711C282.919 293.221 282.336 291.808 281.4 290.636C280.465 289.464 279.215 288.581 277.797 288.09C276.379 287.599 274.851 287.519 273.389 287.861C271.928 288.203 270.593 288.952 269.541 290.021C269.55 289.837 269.569 289.656 269.569 289.47C269.576 286.44 268.379 283.531 266.241 281.381C264.103 279.23 261.199 278.013 258.164 277.997C255.129 277.98 252.212 279.166 250.051 281.293C247.89 283.421 246.662 286.317 246.636 289.347C245.624 288.808 244.496 288.523 243.349 288.517C242.202 288.511 241.071 288.784 240.053 289.312C239.035 289.84 238.162 290.608 237.508 291.548C236.854 292.489 236.439 293.574 236.3 294.711H283.082ZM119.411 203.096C119.882 201.125 119.939 199.079 119.579 197.085C119.22 195.091 118.451 193.193 117.321 191.511C116.191 189.828 114.725 188.397 113.015 187.307C111.305 186.217 109.387 185.492 107.383 185.178C105.378 184.864 103.33 184.967 101.368 185.481C99.4052 185.994 97.5703 186.908 95.9783 188.164C94.3864 189.42 93.0719 190.991 92.1174 192.779C91.1629 194.566 90.5891 196.532 90.4319 198.551C89.2379 197.845 87.9066 197.401 86.527 197.249C85.1474 197.098 83.7512 197.242 82.4318 197.672C81.1124 198.102 79.9001 198.808 78.876 199.744C77.8519 200.679 77.0395 201.822 76.4932 203.096H119.411ZM327.337 252.943C327.36 252.686 327.374 252.429 327.376 252.171C327.376 250.55 326.954 248.958 326.15 247.55C325.346 246.142 324.188 244.968 322.792 244.142C321.395 243.317 319.807 242.869 318.184 242.843C316.561 242.817 314.959 243.214 313.536 243.994C311.508 241.437 308.602 239.724 305.38 239.186C302.158 238.649 298.851 239.325 296.101 241.085C294.527 237.977 292.045 235.42 288.983 233.752C285.922 232.083 282.425 231.383 278.956 231.742C275.486 232.102 272.208 233.505 269.555 235.766C266.902 238.026 265 241.038 264.099 244.402C262.547 243.72 260.857 243.408 259.163 243.49C257.469 243.571 255.817 244.045 254.338 244.873C252.859 245.701 251.592 246.861 250.639 248.262C249.686 249.662 249.072 251.265 248.845 252.943H327.337Z" fill="white"/>
<path d="M253.553 155.779C254.735 155.779 255.694 154.819 255.694 153.636C255.694 152.452 254.735 151.493 253.553 151.493C252.37 151.493 251.411 152.452 251.411 153.636C251.411 154.819 252.37 155.779 253.553 155.779Z" fill="#F28705"/>
<path d="M257.033 149.815C256.941 149.815 256.848 149.784 256.773 149.722C256.597 149.577 256.573 149.319 256.716 149.143L285.473 114.259C285.617 114.083 285.877 114.061 286.051 114.203C286.226 114.348 286.25 114.606 286.107 114.782L257.351 149.665C257.269 149.764 257.151 149.815 257.033 149.815Z" fill="#5BC9C6"/>
<path d="M258.961 154.047C258.742 154.047 258.561 153.874 258.552 153.653C258.541 153.426 258.717 153.235 258.944 153.225L285.774 152.046C285.779 152.045 285.786 152.045 285.792 152.045C286.011 152.045 286.193 152.218 286.202 152.439C286.212 152.666 286.037 152.856 285.809 152.867L258.979 154.046C258.973 154.047 258.966 154.047 258.961 154.047Z" fill="#F28705"/>
<path d="M299.928 191.771C299.839 191.771 299.749 191.743 299.674 191.683L256.78 157.924C256.601 157.784 256.57 157.525 256.711 157.348C256.852 157.167 257.11 157.137 257.287 157.279L300.181 191.037C300.36 191.177 300.391 191.437 300.25 191.613C300.168 191.717 300.049 191.771 299.928 191.771Z" fill="#5BC9C6"/>
<path d="M269.726 148.368C269.558 148.368 269.402 148.265 269.341 148.099C269.261 147.886 269.37 147.649 269.582 147.571L304.283 134.711C304.491 134.631 304.732 134.739 304.81 134.953C304.89 135.166 304.781 135.402 304.569 135.48L269.868 148.341C269.822 148.359 269.773 148.368 269.726 148.368Z" fill="#F28705"/>
<path d="M250.445 149.815C250.347 149.815 250.247 149.779 250.168 149.708L218.682 120.933C218.514 120.78 218.503 120.52 218.655 120.352C218.808 120.184 219.067 120.173 219.236 120.325L250.722 149.1C250.889 149.253 250.901 149.513 250.749 149.681C250.668 149.769 250.557 149.815 250.445 149.815Z" fill="#5BC9C6"/>
<path d="M252.213 141.133C252.019 141.133 251.845 140.993 251.81 140.794L246.027 108.804C245.986 108.581 246.135 108.367 246.358 108.328C246.576 108.278 246.796 108.435 246.834 108.659L252.618 140.649C252.658 140.872 252.51 141.085 252.286 141.125C252.262 141.13 252.238 141.133 252.213 141.133Z" fill="#F28705"/>
<path d="M246.431 153.458C246.424 153.458 246.415 153.457 246.406 153.457L204.957 150.938C204.731 150.924 204.558 150.729 204.572 150.502C204.587 150.278 204.752 150.115 205.007 150.117L246.456 152.636C246.682 152.65 246.855 152.845 246.841 153.071C246.827 153.289 246.648 153.458 246.431 153.458Z" fill="#5BC9C6"/>
<path d="M233.257 172.159C233.139 172.159 233.022 172.108 232.941 172.01C232.796 171.835 232.819 171.576 232.995 171.432L249.06 158.089C249.233 157.944 249.494 157.969 249.638 158.143C249.783 158.318 249.76 158.577 249.585 158.721L233.519 172.064C233.442 172.127 233.349 172.159 233.257 172.159Z" fill="#F28705"/>
<path d="M247.395 201.093C247.374 201.093 247.354 201.091 247.332 201.088C247.108 201.054 246.955 200.844 246.988 200.62L253.146 160.593C253.179 160.369 253.378 160.211 253.614 160.249C253.838 160.283 253.992 160.493 253.958 160.717L247.8 200.744C247.768 200.947 247.594 201.093 247.395 201.093Z" fill="#5BC9C6"/>
<path d="M241.289 148.367C241.238 148.367 241.187 148.357 241.137 148.338L220.252 139.979C220.041 139.896 219.939 139.656 220.023 139.446C220.107 139.232 220.347 139.132 220.557 139.216L241.441 147.575C241.652 147.658 241.755 147.899 241.67 148.109C241.606 148.27 241.451 148.367 241.289 148.367Z" fill="#F28705"/>
<path d="M295.429 168.461C295.381 168.461 295.333 168.452 295.285 168.434L269.581 158.789C269.369 158.708 269.261 158.473 269.341 158.26C269.421 158.048 269.654 157.94 269.869 158.02L295.573 167.665C295.785 167.745 295.893 167.981 295.814 168.193C295.751 168.358 295.595 168.461 295.429 168.461Z" fill="#F28705"/>
<path d="M202.412 171.195C202.236 171.195 202.074 171.081 202.019 170.906C201.951 170.688 202.073 170.458 202.289 170.391L229.117 162.031C229.336 161.964 229.565 162.086 229.632 162.301C229.699 162.519 229.578 162.749 229.362 162.816L202.533 171.176C202.493 171.189 202.452 171.195 202.412 171.195Z" fill="#FA642F"/>
<path d="M274.062 204.791C273.901 204.791 273.749 204.695 273.682 204.538L261.634 175.442C261.548 175.232 261.648 174.991 261.856 174.904C262.065 174.819 262.306 174.918 262.393 175.127L274.442 204.223C274.528 204.433 274.428 204.673 274.22 204.76C274.168 204.781 274.115 204.791 274.062 204.791Z" fill="#F28705"/>
<path d="M264.423 122.969C264.371 122.969 264.318 122.958 264.269 122.938C264.059 122.852 263.958 122.613 264.043 122.403L271.996 102.952C272.082 102.739 272.329 102.642 272.531 102.727C272.741 102.812 272.842 103.052 272.756 103.262L264.803 122.713C264.738 122.873 264.585 122.969 264.423 122.969Z" fill="#FA642F"/>
<path d="M233.257 118.145C233.128 118.145 233.001 118.084 232.92 117.97L220.068 99.6455C219.938 99.4586 219.984 99.2026 220.168 99.0733C220.356 98.9453 220.611 98.9888 220.74 99.1732L233.592 117.498C233.722 117.685 233.676 117.941 233.492 118.07C233.421 118.121 233.337 118.145 233.257 118.145Z" fill="#FA642F"/>
<path d="M214.62 200.289C214.52 200.289 214.421 200.254 214.34 200.179C214.174 200.025 214.165 199.765 214.318 199.598L231.35 181.274C231.503 181.109 231.761 181.096 231.93 181.252C232.097 181.407 232.106 181.667 231.952 181.833L214.922 200.158C214.84 200.245 214.73 200.289 214.62 200.289Z" fill="#FA642F"/>
<path d="M297.839 156.486C297.615 156.486 297.432 156.306 297.428 156.082C297.424 155.855 297.606 155.668 297.832 155.665L315.878 155.37C315.878 155.37 315.882 155.37 315.884 155.37C316.108 155.37 316.291 155.551 316.295 155.775C316.299 156.001 316.117 156.188 315.891 156.192L297.845 156.486C297.845 156.486 297.841 156.486 297.839 156.486Z" fill="#FA642F"/>
<path d="M67.625 192.344C68.1871 193.384 69.4868 193.772 70.528 193.209C71.5692 192.647 71.9576 191.347 71.3955 190.307C70.8334 189.266 69.5336 188.879 68.4925 189.441C67.4513 190.004 67.0629 191.303 67.625 192.344Z" fill="#F28705"/>
<path d="M74.5264 192.572C74.4826 192.491 74.4653 192.394 74.4846 192.298C74.5286 192.075 74.7445 191.931 74.9669 191.973L119.326 200.694C119.55 200.737 119.693 200.955 119.651 201.176C119.607 201.399 119.391 201.543 119.168 201.5L74.809 192.78C74.6833 192.755 74.5823 192.675 74.5264 192.572Z" fill="#5BC9C6"/>
<path d="M71.7196 196.279C71.6156 196.087 71.6813 195.845 71.8718 195.732C72.0663 195.615 72.3174 195.679 72.4347 195.874L86.224 218.92C86.2275 218.923 86.2305 218.929 86.2336 218.935C86.3376 219.127 86.2719 219.369 86.0813 219.482C85.8868 219.599 85.6357 219.535 85.5185 219.34L71.7292 196.294C71.725 196.289 71.722 196.284 71.7196 196.279Z" fill="#F28705"/>
<path d="M57.9998 250.253C57.9578 250.175 57.9394 250.082 57.9571 249.988L67.2717 196.203C67.3093 195.979 67.5233 195.829 67.7456 195.869C67.9713 195.907 68.1211 196.12 68.08 196.342L58.7654 250.127C58.7278 250.351 58.5138 250.502 58.2915 250.462C58.1614 250.439 58.0575 250.36 57.9998 250.253Z" fill="#5BC9C6"/>
<path d="M81.8325 203.051C81.7528 202.904 81.7688 202.718 81.886 202.585C82.0352 202.414 82.2952 202.397 82.4649 202.547L110.273 226.965C110.442 227.109 110.461 227.373 110.31 227.544C110.161 227.714 109.901 227.731 109.731 227.582L81.9236 203.163C81.886 203.131 81.855 203.093 81.8325 203.051Z" fill="#F28705"/>
<path d="M71.3952 186.776C71.3484 186.689 71.3325 186.584 71.3578 186.48L81.7092 145.102C81.7647 144.881 81.9878 144.748 82.2077 144.802C82.4282 144.857 82.5611 145.079 82.5074 145.3L72.156 186.679C72.1006 186.899 71.8774 187.033 71.6575 186.979C71.5415 186.95 71.4481 186.874 71.3952 186.776Z" fill="#5BC9C6"/>
<path d="M79.8742 184.204C79.7818 184.033 79.8219 183.814 79.9812 183.689L105.378 163.396C105.554 163.254 105.813 163.283 105.954 163.461C106.102 163.629 106.068 163.897 105.889 164.037L80.4921 184.33C80.3156 184.472 80.057 184.443 79.9156 184.265C79.8996 184.246 79.8858 184.226 79.8742 184.204Z" fill="#F28705"/>
<path d="M66.2821 184.976C66.2785 184.969 66.2753 184.96 66.2711 184.953L48.7872 147.288C48.6919 147.082 48.781 146.837 48.9871 146.742C49.1914 146.649 49.414 146.716 49.5328 146.941L67.0167 184.606C67.1119 184.812 67.0228 185.057 66.8168 185.152C66.6187 185.243 66.3849 185.166 66.2821 184.976Z" fill="#5BC9C6"/>
<path d="M43.5669 182.273C43.511 182.169 43.5001 182.041 43.5474 181.924C43.633 181.714 43.8714 181.611 44.082 181.696L63.4571 189.49C63.6664 189.573 63.769 189.814 63.6846 190.024C63.599 190.234 63.3605 190.337 63.15 190.252L43.7749 182.458C43.6832 182.421 43.6107 182.354 43.5669 182.273Z" fill="#F28705"/>
<path d="M24.8293 208.464C24.8196 208.446 24.8121 208.427 24.804 208.406C24.728 208.193 24.8397 207.958 25.0526 207.881L63.1963 194.274C63.4092 194.197 63.6419 194.297 63.7217 194.523C63.7977 194.736 63.686 194.971 63.4731 195.048L25.3295 208.654C25.1352 208.723 24.9241 208.639 24.8293 208.464Z" fill="#5BC9C6"/>
<path d="M68.3169 178.032C68.2926 177.987 68.2773 177.937 68.2705 177.884L65.6983 155.536C65.6712 155.311 65.8343 155.107 66.0591 155.081C66.2867 155.053 66.4888 155.217 66.5142 155.442L69.0864 177.789C69.1135 178.014 68.9504 178.219 68.7256 178.244C68.5533 178.264 68.3941 178.175 68.3169 178.032Z" fill="#F28705"/>
<path d="M76.3703 235.216C76.3478 235.174 76.3326 235.127 76.3259 235.077L72.5946 207.877C72.5646 207.652 72.7208 207.446 72.9454 207.414C73.1707 207.384 73.3759 207.538 73.4082 207.765L77.1395 234.964C77.1695 235.189 77.0134 235.396 76.7887 235.427C76.6137 235.45 76.4494 235.362 76.3703 235.216Z" fill="#F28705"/>
<path d="M29.7543 154.676C29.671 154.522 29.694 154.325 29.8221 154.193C29.9814 154.03 30.2418 154.027 30.4031 154.186L50.5097 173.817C50.6734 173.977 50.6741 174.237 50.5165 174.398C50.3573 174.561 50.0968 174.564 49.9355 174.405L29.8289 154.774C29.7988 154.745 29.7737 154.712 29.7543 154.676Z" fill="#FA642F"/>
<path d="M34.2505 233.684C34.1739 233.542 34.186 233.363 34.293 233.229L54.1654 208.8C54.3094 208.624 54.5685 208.598 54.7442 208.74C54.9188 208.883 54.9458 209.143 54.8036 209.318L34.9311 233.748C34.7872 233.923 34.528 233.95 34.3524 233.808C34.31 233.773 34.2755 233.73 34.2505 233.684Z" fill="#F28705"/>
<path d="M101.659 186.314C101.634 186.268 101.618 186.217 101.613 186.163C101.588 185.938 101.751 185.735 101.976 185.711L122.87 183.463C123.097 183.437 123.3 183.608 123.322 183.826C123.346 184.052 123.184 184.254 122.958 184.279L102.065 186.526C101.893 186.545 101.736 186.456 101.659 186.314Z" fill="#FA642F"/>
<path d="M91.0896 156.6C91.0282 156.487 91.022 156.346 91.084 156.221L101.098 136.204C101.2 136 101.447 135.919 101.649 136.02C101.851 136.124 101.933 136.369 101.833 136.57L91.8187 156.587C91.7163 156.791 91.4692 156.872 91.2679 156.771C91.1888 156.733 91.1279 156.671 91.0896 156.6Z" fill="#FA642F"/>
<path d="M9.95891 179.246C9.91149 179.158 9.89559 179.053 9.92261 178.947C9.97984 178.727 10.2042 178.596 10.4236 178.651L34.6408 184.927C34.859 184.983 34.9931 185.204 34.936 185.427C34.8787 185.647 34.6544 185.779 34.435 185.723L10.2184 179.449C10.1029 179.418 10.0112 179.342 9.95891 179.246Z" fill="#FA642F"/>
<path d="M88.0511 231.644C87.9447 231.447 88.0165 231.201 88.2118 231.091C88.4093 230.98 88.66 231.051 88.771 231.248L97.607 246.985C97.607 246.985 97.6088 246.989 97.6101 246.991C97.7165 247.188 97.6446 247.435 97.4494 247.544C97.2518 247.655 97.0011 247.584 96.8901 247.387L88.0541 231.65C88.0541 231.65 88.0523 231.647 88.0511 231.644Z" fill="#FA642F"/>
<path d="M176.878 71.5103C178.018 71.1935 178.684 70.0124 178.367 68.8723C178.05 67.7321 176.87 67.0647 175.73 67.3815C174.591 67.6983 173.924 68.8794 174.241 70.0195C174.558 71.1596 175.739 71.8271 176.878 71.5103Z" fill="#F28705"/>
<path d="M178.634 64.8325C178.545 64.8572 178.447 64.8526 178.357 64.8124C178.15 64.72 178.057 64.4774 178.148 64.27L196.509 22.958C196.601 22.7491 196.846 22.6586 197.051 22.7489C197.259 22.8413 197.352 23.0839 197.261 23.2912L178.899 64.6032C178.847 64.7201 178.747 64.801 178.634 64.8325Z" fill="#5BC9C6"/>
<path d="M181.625 68.3932C181.414 68.4518 181.193 68.334 181.125 68.123C181.054 67.9075 181.172 67.6768 181.389 67.6059L206.922 59.2832C206.927 59.2806 206.933 59.2789 206.939 59.2772C207.15 59.2186 207.371 59.3364 207.439 59.5473C207.51 59.7629 207.392 59.9936 207.175 60.0644L181.642 68.3872C181.636 68.3901 181.63 68.3918 181.625 68.3932Z" fill="#F28705"/>
<path d="M231.199 93.7649C231.114 93.7886 231.019 93.7858 230.932 93.7477L180.562 72.7128C180.352 72.6263 180.253 72.3842 180.341 72.1763C180.429 71.9648 180.669 71.8659 180.877 71.9555L231.247 92.9905C231.457 93.0769 231.556 93.319 231.468 93.5269C231.417 93.6487 231.317 93.7324 231.199 93.7649Z" fill="#5BC9C6"/>
<path d="M190.475 60.0377C190.313 60.0825 190.135 60.0257 190.032 59.8818C189.898 59.6983 189.94 59.4411 190.123 59.309L220.111 37.6234C220.289 37.4902 220.551 37.5303 220.684 37.7153C220.817 37.8988 220.776 38.1561 220.592 38.2882L190.604 59.9737C190.565 60.0033 190.52 60.025 190.475 60.0377Z" fill="#F28705"/>
<path d="M172.287 66.5973C172.192 66.6237 172.086 66.6159 171.991 66.5681L133.947 47.2795C133.745 47.1764 133.664 46.9291 133.766 46.7268C133.869 46.5241 134.115 46.4438 134.318 46.5453L172.362 65.8339C172.564 65.937 172.645 66.1843 172.543 66.3866C172.489 66.4933 172.394 66.5675 172.287 66.5973Z" fill="#5BC9C6"/>
<path d="M171.664 57.7585C171.477 57.8106 171.272 57.7228 171.185 57.5396L157.044 28.2681C156.945 28.0645 157.031 27.8188 157.236 27.7206C157.432 27.6143 157.686 27.707 157.783 27.9125L171.924 57.1841C172.023 57.3877 171.938 57.6334 171.733 57.7316C171.711 57.743 171.688 57.752 171.664 57.7585Z" fill="#F28705"/>
<path d="M169.395 71.1819C169.388 71.184 169.379 71.1851 169.37 71.1875L128.762 79.8634C128.54 79.9105 128.321 79.7693 128.274 79.5473C128.229 79.3274 128.344 79.1253 128.59 79.0596L169.199 70.3837C169.421 70.3366 169.639 70.4778 169.686 70.6998C169.731 70.9133 169.604 71.124 169.395 71.1819Z" fill="#5BC9C6"/>
<path d="M161.712 92.7284C161.598 92.76 161.471 92.7421 161.367 92.67C161.181 92.5398 161.134 92.2845 161.264 92.0982L173.168 74.9396C173.296 74.754 173.554 74.7075 173.74 74.8365C173.926 74.9668 173.973 75.222 173.843 75.4083L161.939 92.5669C161.882 92.6479 161.8 92.7038 161.712 92.7284Z" fill="#F28705"/>
<path d="M183.083 116.818C183.064 116.824 183.043 116.827 183.022 116.83C182.797 116.857 182.593 116.696 182.565 116.471L177.776 76.2575C177.748 76.0328 177.897 75.828 178.135 75.8003C178.359 75.7737 178.564 75.9348 178.592 76.1595L183.381 116.373C183.404 116.578 183.276 116.765 183.083 116.818Z" fill="#5BC9C6"/>
<path d="M163.077 67.655C163.028 67.6687 162.976 67.6726 162.923 67.6674L140.563 65.2088C140.337 65.1851 140.174 64.9807 140.199 64.7558C140.222 64.5276 140.427 64.367 140.652 64.3922L163.012 66.8509C163.237 66.8745 163.4 67.0789 163.375 67.3038C163.357 67.4763 163.234 67.6115 163.077 67.655Z" fill="#F28705"/>
<path d="M220.621 72.5117C220.575 72.5244 220.526 72.5288 220.476 72.5242L193.127 70.1173C192.901 70.0965 192.734 69.8983 192.754 69.6724C192.775 69.4461 192.97 69.2801 193.198 69.299L220.547 71.7059C220.773 71.7267 220.94 71.9249 220.92 72.1508C220.904 72.3267 220.781 72.4672 220.621 72.5117Z" fill="#F28705"/>
<path d="M131.735 100.063C131.566 100.11 131.379 100.043 131.279 99.8891C131.156 99.6976 131.211 99.4431 131.402 99.321L155.011 84.0802C155.203 83.9563 155.457 84.0133 155.578 84.2027C155.702 84.3942 155.647 84.6487 155.456 84.7707L131.847 100.012C131.812 100.034 131.775 100.052 131.735 100.063Z" fill="#FA642F"/>
<path d="M209.767 113.238C209.612 113.281 209.439 113.229 209.333 113.095L189.931 88.2903C189.792 88.111 189.823 87.8525 190.001 87.7127C190.179 87.5743 190.439 87.6057 190.578 87.7834L209.981 112.588C210.12 112.768 210.088 113.026 209.91 113.166C209.866 113.199 209.817 113.224 209.767 113.238Z" fill="#F28705"/>
<path d="M178.562 36.9874C178.512 37.0014 178.459 37.0056 178.405 36.9992C178.18 36.9728 178.018 36.7693 178.045 36.5441L180.497 15.6737C180.522 15.446 180.734 15.2862 180.951 15.3134C181.177 15.3399 181.338 15.5434 181.312 15.7686L178.86 36.639C178.84 36.8106 178.718 36.9442 178.562 36.9874Z" fill="#FA642F"/>
<path d="M147.243 40.6893C147.119 40.7239 146.98 40.6986 146.872 40.6105L129.581 26.3984C129.405 26.2533 129.381 25.9943 129.524 25.8204C129.671 25.6467 129.928 25.6204 130.102 25.7634L147.393 39.9755C147.568 40.1206 147.593 40.3796 147.45 40.5535C147.394 40.622 147.321 40.6677 147.243 40.6893Z" fill="#FA642F"/>
<path d="M151.291 124.823C151.195 124.85 151.089 124.842 150.992 124.792C150.79 124.688 150.712 124.44 150.815 124.238L162.316 102.021C162.419 101.821 162.665 101.74 162.869 101.845C163.071 101.949 163.149 102.197 163.046 102.399L151.547 124.615C151.491 124.721 151.397 124.794 151.291 124.823Z" fill="#FA642F"/>
<path d="M219.735 60.3296C219.52 60.3896 219.295 60.2647 219.231 60.0499C219.167 59.8327 219.292 59.604 219.509 59.5396L236.816 54.4221C236.816 54.4221 236.82 54.421 236.822 54.4203C237.038 54.3604 237.263 54.4853 237.326 54.7C237.391 54.9173 237.266 55.146 237.049 55.2104L219.741 60.3279C219.741 60.3279 219.738 60.3289 219.735 60.3296Z" fill="#FA642F"/>
</svg>
