<svg width="323" height="257" viewBox="0 0 323 257" fill="none" xmlns="http://www.w3.org/2000/svg">
<g clip-path="url(#clip0_153_579)">
<path d="M225.492 78.6119C225.644 78.4589 225.793 78.3036 225.937 78.1439C226.022 78.3032 226.113 78.4589 226.208 78.6119H240.927C241.934 76.9831 242.37 75.0661 242.165 73.1629C241.961 71.2598 241.128 69.4786 239.798 68.1001C238.468 66.7216 236.716 65.824 234.819 65.5488C232.922 65.2737 230.987 65.6365 229.319 66.5802C228.791 63.4168 227.18 60.5343 224.761 58.4238C222.342 56.3134 219.266 55.1057 216.055 55.0066C212.844 54.9075 209.699 55.9231 207.154 57.8804C204.609 59.8376 202.823 62.6153 202.1 65.7401C201.195 65.971 200.334 66.3476 199.55 66.8552C198.322 65.0827 196.559 63.7484 194.517 63.0472C192.476 62.3459 190.264 62.3143 188.203 62.9569C186.142 63.5996 184.341 64.8828 183.063 66.6195C181.784 68.3562 181.095 70.4553 181.096 72.6107C181.096 72.6521 181.102 72.6917 181.102 72.7331C180.194 72.1945 179.146 71.9357 178.091 71.9894C177.036 72.043 176.02 72.4067 175.171 73.0346C174.322 73.6626 173.677 74.5269 173.319 75.5191C172.96 76.5114 172.903 77.5873 173.154 78.6119H225.492Z" fill="white"/>
<circle cx="245" cy="70" r="19" fill="#FFEEBB"/>
<path d="M266.898 143.725C266.71 142.008 266.038 140.38 264.96 139.029C263.882 137.679 262.442 136.661 260.808 136.095C259.174 135.529 257.412 135.437 255.728 135.831C254.043 136.225 252.506 137.088 251.293 138.32C251.304 138.108 251.325 137.9 251.325 137.686C251.333 134.194 249.954 130.841 247.49 128.362C245.026 125.884 241.679 124.482 238.181 124.463C234.684 124.444 231.321 125.81 228.831 128.262C226.34 130.714 224.925 134.052 224.895 137.544C223.729 136.922 222.429 136.594 221.107 136.587C219.785 136.58 218.482 136.894 217.309 137.503C216.136 138.112 215.129 138.996 214.376 140.08C213.622 141.165 213.144 142.416 212.983 143.725H266.898ZM78.2731 38.1416C78.8154 35.8706 78.8814 33.5122 78.4668 31.2146C78.0523 28.917 77.1663 26.7298 75.8644 24.7905C74.5625 22.8512 72.8729 21.2017 70.9018 19.9457C68.9307 18.6897 66.7207 17.8543 64.4107 17.4921C62.1007 17.1299 59.7406 17.2486 57.4788 17.8409C55.217 18.4331 53.1023 19.4861 51.2676 20.9335C49.433 22.381 47.9181 24.1917 46.818 26.2519C45.718 28.312 45.0567 30.5771 44.8756 32.9047C43.4995 32.0904 41.9653 31.5788 40.3753 31.404C38.7853 31.2291 37.1763 31.3951 35.6557 31.8908C34.1351 32.3865 32.738 33.2006 31.5578 34.2785C30.3775 35.3565 29.4413 36.6735 28.8116 38.1416H78.2731ZM317.901 95.5891C317.928 95.2932 317.943 94.9963 317.946 94.6991C317.946 92.8315 317.459 90.9961 316.532 89.3736C315.606 87.7511 314.272 86.3977 312.662 85.4465C311.052 84.4954 309.222 83.9794 307.352 83.9494C305.482 83.9194 303.636 84.3764 301.996 85.2755C299.659 82.3289 296.309 80.3544 292.596 79.7349C288.883 79.1155 285.071 79.8953 281.902 81.9232C280.088 78.3416 277.228 75.3945 273.699 73.4718C270.171 71.5491 266.141 70.7415 262.143 71.156C258.145 71.5704 254.367 73.1874 251.309 75.7928C248.252 78.3982 246.059 81.8692 245.021 85.7464C243.232 84.9604 241.285 84.6003 239.332 84.6945C237.38 84.7886 235.476 85.3345 233.772 86.2889C232.067 87.2434 230.608 88.5804 229.509 90.1944C228.41 91.8084 227.703 93.6552 227.441 95.5891H317.901Z" fill="#FBFBFB"/>
<path d="M237.926 117.883L237.358 115.661H235.282L234.714 117.84C233.682 118.158 232.78 118.798 232.139 119.667C231.498 120.535 231.152 121.586 231.152 122.665H241.367C241.367 121.608 241.034 120.578 240.417 119.72C239.799 118.861 238.928 118.219 237.926 117.883Z" fill="#FA642F"/>
<path d="M241.604 122.875L239.089 122.397L237.197 132.364L239.712 132.841L241.604 122.875Z" fill="#F2CD5B"/>
<path d="M242.441 182.42H230.382V185.498H242.441V182.42Z" fill="#F28705"/>
<path d="M242.477 123.699H230.197V122.666C230.192 121.466 230.544 120.291 231.209 119.292C231.874 118.293 232.821 117.515 233.929 117.055L234.561 114.629H238.237L238.872 117.115C239.946 117.592 240.858 118.37 241.498 119.356C242.138 120.341 242.478 121.491 242.477 122.666V123.699ZM232.395 121.633H240.278C240.107 120.992 239.78 120.403 239.325 119.92C238.871 119.436 238.304 119.073 237.675 118.862L237.142 118.683L236.634 116.694H236.157L235.645 118.659L235.095 118.828C234.443 119.026 233.852 119.388 233.379 119.879C232.907 120.37 232.568 120.974 232.395 121.633Z" fill="#401737"/>
<path d="M240.754 133.605H231.866L229.566 121.633H242.941L240.754 133.605ZM233.572 131.54H239.032L240.465 123.698H232.065L233.572 131.54Z" fill="#401737"/>
<path d="M239.768 176.815H233.325L234.463 169.605H238.402L239.768 176.815ZM235.741 174.75H237.275L236.692 171.67H236.227L235.741 174.75Z" fill="#401737"/>
<path d="M243.473 186.53H229.35V181.387H231.246L232.123 174.75H240.673L241.676 181.387H243.473V186.53ZM231.415 184.465H241.408V183.452H239.9L238.897 176.815H233.933L233.056 183.452H231.415V184.465Z" fill="#401737"/>
<path d="M243.564 123.698H229.111C228.837 123.698 228.574 123.589 228.381 123.396C228.187 123.202 228.078 122.939 228.078 122.665C228.078 122.392 228.187 122.129 228.381 121.935C228.574 121.742 228.837 121.633 229.111 121.633H243.564C243.838 121.633 244.1 121.742 244.294 121.935C244.488 122.129 244.596 122.392 244.596 122.665C244.596 122.939 244.488 123.202 244.294 123.396C244.1 123.589 243.838 123.698 243.564 123.698Z" fill="#401737"/>
<path d="M237.56 132.922H235.495V168.927H237.56V132.922Z" fill="#401737"/>
<path d="M238.522 143.144H234.533C234.259 143.144 233.997 143.035 233.803 142.841C233.609 142.648 233.5 142.385 233.5 142.111C233.5 141.837 233.609 141.575 233.803 141.381C233.997 141.187 234.259 141.079 234.533 141.079H238.522C238.796 141.079 239.058 141.187 239.252 141.381C239.445 141.575 239.554 141.837 239.554 142.111C239.554 142.385 239.445 142.648 239.252 142.841C239.058 143.035 238.796 143.144 238.522 143.144Z" fill="#401737"/>
<path d="M238.522 158.961H234.533C234.259 158.961 233.997 158.852 233.803 158.659C233.609 158.465 233.5 158.202 233.5 157.929C233.5 157.655 233.609 157.392 233.803 157.198C233.997 157.005 234.259 156.896 234.533 156.896H238.522C238.796 156.896 239.058 157.005 239.252 157.198C239.445 157.392 239.554 157.655 239.554 157.929C239.554 158.202 239.445 158.465 239.252 158.659C239.058 158.852 238.796 158.961 238.522 158.961Z" fill="#401737"/>
<path d="M241.123 181.387H232.151V183.452H241.123V181.387Z" fill="#401737"/>
<path d="M169.052 163.668L172.36 151.012L171.659 151.006L172.321 138.204L173.692 130.124L174.002 129.828C173.726 129.83 173.452 129.792 173.187 129.716C171.323 129.164 170.376 126.813 171.07 124.464C171.765 122.115 173.84 120.657 175.704 121.209C177.567 121.761 178.515 124.112 177.82 126.461C177.583 127.283 177.149 128.034 176.557 128.651L177.768 131.317L182.363 138.855L183.197 151.041L181.131 151.237L181.406 156.617L181.023 157.008L181.131 163.767L187.946 177.799L186.454 179.692L176.484 165.701L175.12 163.048L173.235 164.977L170.467 181.819H168.256L169.052 163.668Z" fill="#FBFBFB"/>
<path d="M149.186 155.528C149.186 155.528 149.601 145.724 150.103 143.455C150.604 141.185 153.303 132.185 153.303 132.185C153.087 131.877 152.904 131.547 152.757 131.2C151.873 129.1 152.462 126.846 154.073 126.167C155.684 125.489 157.708 126.641 158.593 128.742C159.478 130.843 158.888 133.096 157.277 133.775C157.083 133.857 156.879 133.913 156.671 133.943L157.642 138.327L160.095 142.713L159.116 145.439L159.426 151.144L159.835 155.24L149.186 155.528Z" fill="#FBFBFB"/>
<path d="M159.835 155.442L157.925 155.493L149.186 155.729L147.489 165.809L161.287 165.517L159.835 155.442Z" fill="#FA642F"/>
<path d="M158.764 126.939C158.764 126.939 158.132 124.47 156.405 124.387C154.679 124.305 152.823 124.426 151.795 125.454C150.766 126.483 149.34 135.964 149.34 135.964C149.34 135.964 153.383 139.424 153.955 139.424C154.528 139.424 153.955 127.944 153.955 127.944L158.764 126.939Z" fill="#F2CD5B"/>
<path d="M180.838 144.947L178.586 136.936L175.162 138.583L176.9 144.162L176.795 151.022L171.659 151.005L171.995 139.703L173.432 133.108L177.768 131.317L183.188 140.209L183.431 149.953L183.197 151.041L178.655 151.028L180.838 144.947Z" fill="#F2CD5B"/>
<path d="M150.982 165.588H157.927L155.371 175.689L151.716 175.428L150.982 165.588Z" fill="#FBFBFB"/>
<path d="M156.326 135.192C155.231 135.143 154.181 134.74 153.334 134.043L154.576 132.393C155.431 133.037 156.245 133.271 156.808 133.033C157.747 132.637 158.24 129.244 157.405 127.177L159.32 126.404C160.384 129.04 160.041 133.911 157.61 134.936C157.204 135.107 156.767 135.194 156.326 135.192Z" fill="#401737"/>
<path d="M156.514 164.796L154.357 175.484L156.381 175.893L158.538 165.204L156.514 164.796Z" fill="#401737"/>
<path d="M152.015 165.588H149.95V176.222H152.015V165.588Z" fill="#401737"/>
<path d="M146.259 166.667L148.311 154.702L150.346 155.051L148.718 164.549L160.098 164.308L158.813 155.388L160.857 155.093L162.475 166.323L146.259 166.667Z" fill="#401737"/>
<path d="M158.808 155.344L158.399 151.247L158.074 145.288L158.964 142.807L156.105 137.647L155.079 134.271L157.055 133.67L158.049 136.939L161.225 142.619L160.158 145.592L160.458 151.089L160.862 155.138L158.808 155.344Z" fill="#401737"/>
<path d="M148.296 155.293C148.09 146.042 149.427 140.746 150.585 137.934L152.494 138.72C151.411 141.35 150.162 146.353 150.361 155.247L148.296 155.293Z" fill="#401737"/>
<path d="M155.12 140.132L154.049 140.087C153.858 140.079 149.366 139.846 148.341 135.866L148.296 135.692L148.312 135.513C148.446 134.078 149.197 126.822 150.911 124.888C152.72 122.853 155.674 122.932 157.536 124.039C158.377 124.682 159.09 125.479 159.637 126.387L160.394 127.583L155.171 128.938L155.12 140.132ZM150.386 135.514C150.599 136.097 150.956 136.616 151.425 137.022C151.894 137.428 152.458 137.708 153.065 137.836L153.113 127.338L157.023 126.324C156.867 126.13 156.685 125.959 156.482 125.815C155.313 125.12 153.489 125.096 152.455 126.259C151.541 127.29 150.706 132.222 150.386 135.514Z" fill="#401737"/>
<path d="M155.933 159.608L151.973 151.539L153.623 142.12L155.658 142.477L154.123 151.233L157.787 158.698L155.933 159.608Z" fill="#401737"/>
<path d="M171.343 182.851H166.793L168.043 163.446L170.857 150.62L172.874 151.063L170.077 163.812L168.994 180.786H169.59L172.274 164.454L179.469 157.922C180.052 157.212 180.465 156.378 180.678 155.483C180.891 154.589 180.898 153.658 180.698 152.761L180.345 151.278L182.354 150.8L182.71 152.297C182.984 153.517 182.973 154.784 182.678 155.998C182.383 157.213 181.812 158.343 181.009 159.301L180.912 159.402L174.195 165.5L171.343 182.851Z" fill="#401737"/>
<path d="M184.126 151.285L179.055 151.271L179.061 149.205L182.248 149.215C182.846 139.665 177.014 132.029 176.953 131.951L176.897 131.872L175.283 129.338L177.025 128.229L178.614 130.723C179.176 131.458 185.342 139.799 184.224 150.359L184.126 151.285Z" fill="#401737"/>
<path d="M173.347 131.184C173.008 131.186 172.671 131.129 172.351 131.015C170.021 130.176 169.254 126.416 170.174 123.862C170.346 123.444 170.55 123.04 170.785 122.653L172.557 123.714C172.391 123.986 172.244 124.269 172.117 124.561C171.474 126.346 172.115 128.735 173.051 129.072C173.6 129.269 174.746 128.817 175.714 127.717C175.81 127.611 175.925 127.522 176.052 127.455C176.166 127.37 176.297 127.308 176.436 127.276C176.575 127.243 176.72 127.239 176.86 127.265C177.001 127.291 177.134 127.345 177.253 127.425C177.371 127.505 177.472 127.609 177.548 127.729C177.625 127.85 177.676 127.985 177.697 128.126C177.719 128.268 177.711 128.412 177.675 128.55C177.638 128.688 177.573 128.817 177.484 128.929C177.395 129.041 177.284 129.133 177.158 129.2C176.69 129.771 176.111 130.242 175.456 130.583C174.801 130.924 174.083 131.128 173.347 131.184Z" fill="#401737"/>
<path d="M177.648 157.163L174.3 155.823L175.985 144.666L174.045 138.412L176.017 137.8L178.097 144.507L176.586 154.513L178.415 155.245L177.648 157.163Z" fill="#401737"/>
<path d="M178.033 156.308L176.053 155.722L179.354 144.579L177.266 137.218L179.253 136.654L181.505 144.592L178.033 156.308Z" fill="#401737"/>
<path d="M177.363 129.103L176.117 127.457L176.315 127.307C176.95 126.768 177.372 126.02 177.503 125.198C177.634 124.375 177.466 123.533 177.03 122.824L176.992 122.763C176.708 122.366 176.325 122.051 175.881 121.848C175.438 121.646 174.948 121.563 174.463 121.61C173.817 121.651 173.207 121.924 172.745 122.377L174.884 123.144L174.187 125.088L169.77 123.504L170.22 122.488C170.56 121.665 171.123 120.954 171.846 120.435C172.569 119.916 173.422 119.609 174.31 119.55C175.169 119.475 176.032 119.631 176.811 120.002C177.589 120.373 178.254 120.945 178.737 121.659L178.78 121.729C179.482 122.869 179.749 124.225 179.532 125.546C179.315 126.868 178.629 128.067 177.599 128.923L177.363 129.103Z" fill="#401737"/>
<path d="M176.41 151.267L170.593 151.243L170.986 139.483L172.409 132.952L172.664 130.034L174.721 130.214L174.441 133.328L173.023 139.83L172.724 149.186L176.419 149.202L176.41 151.267Z" fill="#401737"/>
<path d="M165.954 152.469L158.456 146.234L159.776 144.645L165.751 149.614L170.893 143.928L172.425 145.313L165.954 152.469Z" fill="#401737"/>
<path d="M186.434 181.385L175.506 166.839L174.16 163.427L176.08 162.67L177.324 165.821L186.473 177.999L186.722 177.683L180.046 164.814L179.807 157.805L181.871 157.734L182.093 164.277L189.169 177.915L186.434 181.385Z" fill="#401737"/>
<path d="M119.035 229.364L119.549 175.688C119.549 175.688 96.6042 220.847 31.1166 220.847V229.587L119.035 229.364Z" fill="#F2CD5B"/>
<path d="M206.319 229.037H218.579V211.881C218.579 206.833 220.584 201.993 224.152 198.424C227.721 194.855 232.561 192.849 237.607 192.849C242.654 192.849 247.494 194.855 251.062 198.424C254.631 201.993 256.636 206.833 256.636 211.881V229.317H268.325V175.688H206.319V229.037Z" fill="#F2CD5B"/>
<path d="M132.579 229.037H144.839V211.881C144.839 206.833 146.844 201.993 150.412 198.424C153.981 194.855 158.821 192.849 163.868 192.849C168.914 192.849 173.754 194.855 177.323 198.424C180.891 201.993 182.896 206.833 182.896 211.881V229.317H194.585V175.688H132.579V229.037Z" fill="#F2CD5B"/>
<path d="M200.705 168.026H193.839V229.303H200.705V168.026Z" fill="#FA642F"/>
<path d="M193.839 168.027L200.705 159.214V168.027H193.839Z" fill="#FA642F"/>
<path d="M275.517 168.026H268.65V229.303H275.517V168.026Z" fill="#F2CD5B"/>
<path d="M268.65 168.027L275.517 159.214V168.027H268.65Z" fill="#F2CD5B"/>
<path d="M126.415 168.026H119.549V229.303H126.415V168.026Z" fill="#FA642F"/>
<path d="M119.549 168.027L126.415 159.214V168.027H119.549Z" fill="#FA642F"/>
<path d="M257.835 211.868V229.304H246.16V211.868C246.162 207.842 244.886 203.919 242.515 200.665C240.144 197.411 236.802 194.993 232.969 193.761C234.853 193.148 236.822 192.837 238.803 192.841C241.302 192.839 243.777 193.331 246.086 194.286C248.395 195.242 250.494 196.643 252.261 198.41C254.029 200.177 255.431 202.275 256.387 204.585C257.343 206.894 257.835 209.369 257.835 211.868Z" fill="#FA642F"/>
<path d="M183.007 211.868V229.304H171.332V211.868C171.334 207.842 170.058 203.919 167.687 200.665C165.317 197.411 161.974 194.993 158.141 193.761C160.025 193.148 161.994 192.837 163.975 192.841C166.475 192.839 168.949 193.331 171.259 194.286C173.568 195.242 175.666 196.643 177.434 198.41C179.201 200.177 180.603 202.275 181.559 204.585C182.516 206.894 183.008 209.369 183.007 211.868Z" fill="#FA642F"/>
<path d="M149.88 186.48H143.095V188.546H149.88V186.48Z" fill="#FBFBFB"/>
<path d="M147.52 184.226H145.455V187.513H147.52V184.226Z" fill="#FBFBFB"/>
<path d="M263.941 190.164H257.155V192.229H263.941V190.164Z" fill="#FBFBFB"/>
<path d="M261.58 191.196H259.515V194.484H261.58V191.196Z" fill="#FBFBFB"/>
<path d="M219.446 190.844C218.787 190.844 218.143 190.649 217.596 190.283C217.048 189.917 216.621 189.397 216.369 188.789C216.117 188.18 216.051 187.51 216.179 186.864C216.308 186.218 216.625 185.625 217.091 185.159C217.556 184.693 218.15 184.376 218.796 184.247C219.442 184.119 220.111 184.185 220.72 184.437C221.329 184.689 221.849 185.116 222.215 185.663C222.581 186.211 222.776 186.855 222.776 187.514C222.775 188.397 222.424 189.243 221.799 189.868C221.175 190.492 220.329 190.843 219.446 190.844ZM219.446 186.248C219.196 186.248 218.951 186.322 218.743 186.461C218.535 186.6 218.373 186.798 218.277 187.029C218.181 187.26 218.156 187.515 218.205 187.76C218.253 188.006 218.374 188.231 218.551 188.408C218.728 188.585 218.953 188.706 219.199 188.755C219.444 188.804 219.699 188.779 219.93 188.683C220.161 188.587 220.359 188.425 220.498 188.217C220.637 188.009 220.711 187.764 220.711 187.514C220.711 187.178 220.577 186.857 220.34 186.619C220.103 186.382 219.781 186.249 219.446 186.248Z" fill="#FBFBFB"/>
<path d="M220.164 230.397H206.025V174.656H269.169V230.35H255.589V211.882C255.608 207.119 253.742 202.542 250.398 199.151C248.769 197.48 246.822 196.153 244.672 195.248C242.522 194.343 240.213 193.878 237.88 193.88C236.035 193.876 234.202 194.169 232.451 194.748C228.854 195.936 225.726 198.235 223.518 201.314C221.31 204.393 220.136 208.093 220.164 211.882V230.397ZM208.09 228.332H218.099V211.882C218.07 207.658 219.381 203.533 221.844 200.102C224.307 196.671 227.795 194.109 231.806 192.786C233.765 192.139 235.816 191.811 237.88 191.815C240.486 191.811 243.067 192.331 245.47 193.342C247.873 194.353 250.048 195.835 251.869 197.702C255.595 201.478 257.675 206.576 257.654 211.882V228.285H267.104V176.721H208.09V228.332Z" fill="#401737"/>
<path d="M172.07 229.317H170.005V211.881C170.006 208.073 168.798 204.364 166.557 201.286C164.316 198.207 161.156 195.92 157.533 194.751L158.161 192.784C162.202 194.086 165.725 196.636 168.224 200.068C170.724 203.499 172.07 207.636 172.07 211.881V229.317Z" fill="#401737"/>
<path d="M247.192 229.317H245.127V211.881C245.128 208.073 243.92 204.364 241.679 201.286C239.438 198.207 236.279 195.92 232.655 194.751L233.283 192.784C237.324 194.086 240.847 196.636 243.346 200.068C245.846 203.499 247.192 207.636 247.192 211.881V229.317Z" fill="#401737"/>
<path d="M194.357 230.35H180.876V211.882C180.899 207.126 179.05 202.552 175.728 199.148C174.121 197.481 172.195 196.156 170.064 195.251C167.933 194.346 165.642 193.879 163.327 193.88C161.501 193.877 159.688 194.17 157.956 194.747C154.377 195.951 151.27 198.257 149.081 201.335C146.892 204.413 145.733 208.105 145.771 211.882V230.073H131.735V174.656H194.357V230.35ZM182.941 228.285H192.292V176.721H133.8V228.008H143.706V211.882C143.667 207.671 144.962 203.555 147.405 200.125C149.848 196.695 153.314 194.126 157.306 192.787C159.247 192.139 161.281 191.811 163.327 191.815C165.917 191.813 168.481 192.334 170.866 193.346C173.251 194.358 175.407 195.841 177.206 197.705C180.905 201.494 182.965 206.586 182.941 211.882V228.285Z" fill="#401737"/>
<path d="M208.09 230.397H192.292V167.627L200.191 157.472L208.09 167.627V230.397ZM194.357 228.332H206.025V168.336L200.191 160.835L194.357 168.336V228.332Z" fill="#401737"/>
<path d="M282.901 230.397H267.104V167.627L275.003 157.472L282.901 167.627V230.397ZM269.169 228.332H280.836V168.336L275.003 160.835L269.169 168.336V228.332Z" fill="#401737"/>
<path d="M133.8 230.397H118.002V167.627L125.901 157.472L133.8 167.627V230.397ZM120.067 228.332H131.735V168.336L125.901 160.835L120.067 168.336V228.332Z" fill="#401737"/>
<path d="M132.767 166.948H119.035V169.013H132.767V166.948Z" fill="#401737"/>
<path d="M126.934 159.153H124.869V229.364H126.934V159.153Z" fill="#401737"/>
<path d="M207.057 166.948H193.325V169.013H207.057V166.948Z" fill="#401737"/>
<path d="M201.224 159.153H199.159V229.364H201.224V159.153Z" fill="#401737"/>
<path d="M281.869 166.948H268.136V169.013H281.869V166.948Z" fill="#401737"/>
<path d="M276.035 159.153H273.97V229.364H276.035V159.153Z" fill="#401737"/>
<path d="M94.242 219.671L88.551 205.752H90.7941L85.0035 191.588H87.2855L81.4182 177.238H84.0135L75.5515 156.54L67.0888 177.238H69.6841L63.8168 191.588H66.0994L60.3082 205.752H62.5519L56.8604 219.671H94.242Z" fill="#F28705"/>
<path d="M75.4341 155.605L79.0613 176.762H83.9964L75.4341 155.605Z" fill="#FA642F"/>
<path d="M78.7444 169.91L82.3716 191.066H87.3061L78.7444 169.91Z" fill="#FA642F"/>
<path d="M82.2766 184.455L85.9038 205.611H90.8384L82.2766 184.455Z" fill="#FA642F"/>
<path d="M85.7828 198.323L89.41 219.48H94.3446L85.7828 198.323Z" fill="#FA642F"/>
<path d="M76.4665 219.672H74.4016V229.739H76.4665V219.672Z" fill="#401737"/>
<path d="M95.5753 220.735H54.547L60.3252 206.602H58.0477L63.927 192.222H61.6097L67.5665 177.653H64.9315L75.0611 152.878L85.1907 177.653H82.5557L88.5125 192.222H86.1952L92.0746 206.602H89.797L95.5753 220.735ZM57.6225 218.669H92.4998L86.7215 204.537H88.9991L83.1197 190.157H85.437L79.4802 175.588H82.1152L75.0611 158.334L68.007 175.588H70.642L64.6852 190.157H67.0025L61.1232 204.537H63.4007L57.6225 218.669Z" fill="#401737"/>
<path d="M35.8194 191.611C35.0255 191.396 34.1787 191.505 33.4653 191.915C32.7519 192.324 32.2303 193 32.0154 193.795L38.0024 195.416C38.1088 195.023 38.1368 194.612 38.0847 194.208C38.0326 193.804 37.9014 193.415 37.6987 193.061C37.496 192.708 37.2257 192.398 36.9033 192.149C36.5808 191.901 36.2125 191.718 35.8194 191.611Z" fill="#F2CD5B"/>
<path d="M47.7255 210.812C48.8052 210.483 49.7101 209.739 50.2413 208.743C50.7725 207.747 50.8864 206.581 50.558 205.501L42.416 207.979C42.7445 209.059 43.4884 209.964 44.4841 210.495C45.4798 211.026 46.6458 211.14 47.7255 210.812Z" fill="#FA642F"/>
<line x1="23.0493" y1="228.341" x2="310.013" y2="228.341" stroke="#401737" stroke-width="2"/>
</g>
<defs>
<clipPath id="clip0_153_579">
<rect width="322.691" height="257" fill="white"/>
</clipPath>
</defs>
</svg>
