<svg width="25" height="25" viewBox="0 0 25 25" fill="none" xmlns="http://www.w3.org/2000/svg">
<g clip-path="url(#clip0_71_935)">
<path d="M24.0751 12.7247C24.0751 11.7414 23.9963 11.0239 23.8257 10.2798H12.7308V14.7178H19.2432C19.112 15.8207 18.403 17.4816 16.8273 18.5977L16.8053 18.7463L20.3133 21.4965L20.5563 21.521C22.7884 19.4349 24.0751 16.3654 24.0751 12.7247Z" fill="#4285F4"/>
<path d="M12.7308 24.4173C15.9214 24.4173 18.5999 23.3543 20.5563 21.5206L16.8274 18.5973C15.8295 19.3016 14.4902 19.7932 12.7308 19.7932C9.6059 19.7932 6.95366 17.7071 6.0082 14.8237L5.86962 14.8356L2.22196 17.6925L2.17426 17.8267C4.11748 21.7332 8.10902 24.4173 12.7308 24.4173Z" fill="#34A853"/>
<path d="M6.00819 14.8238C5.75872 14.0797 5.61435 13.2824 5.61435 12.4586C5.61435 11.6347 5.75872 10.8375 5.99506 10.0934L5.98846 9.93494L2.29508 7.03223L2.17424 7.09039C1.37334 8.71149 0.913788 10.5319 0.913788 12.4586C0.913788 14.3853 1.37334 16.2056 2.17424 17.8267L6.00819 14.8238Z" fill="#FBBC05"/>
<path d="M12.7308 5.12403C14.9498 5.12403 16.4466 6.09402 17.3 6.90461L20.6351 3.60928C18.5868 1.6826 15.9214 0.5 12.7308 0.5C8.10902 0.5 4.11748 3.18406 2.17426 7.09057L5.99508 10.0936C6.95366 7.2102 9.6059 5.12403 12.7308 5.12403Z" fill="#EB4335"/>
</g>
<defs>
<clipPath id="clip0_71_935">
<rect width="23.1724" height="24" fill="white" transform="translate(0.913788 0.5)"/>
</clipPath>
</defs>
</svg>
