<svg width="17" height="22" viewBox="0 0 17 22" fill="none" xmlns="http://www.w3.org/2000/svg">
<path d="M8.49996 11C7.35413 11 6.41663 10.0625 6.41663 8.91668C6.41663 7.77084 7.35413 6.83334 8.49996 6.83334C9.64579 6.83334 10.5833 7.77084 10.5833 8.91668C10.5833 10.0625 9.64579 11 8.49996 11ZM14.75 9.12501C14.75 5.34376 11.9895 2.66668 8.49996 2.66668C5.01038 2.66668 2.24996 5.34376 2.24996 9.12501C2.24996 11.5625 4.28121 14.7917 8.49996 18.6458C12.7187 14.7917 14.75 11.5625 14.75 9.12501ZM8.49996 0.583344C12.875 0.583344 16.8333 3.93751 16.8333 9.12501C16.8333 12.5833 14.052 16.6771 8.49996 21.4167C2.94788 16.6771 0.166626 12.5833 0.166626 9.12501C0.166626 3.93751 4.12496 0.583344 8.49996 0.583344Z" fill="#008BA2"/>
</svg>
